<mxfile host="Electron" modified="2023-05-20T16:26:19.177Z" agent="Mozilla/5.0 (Windows NT 10.0; Win64; x64) AppleWebKit/537.36 (KHTML, like Gecko) draw.io/21.2.8 Chrome/112.0.5615.165 Electron/24.2.0 Safari/537.36" etag="1EX-XapQqC-IBEPIRPPK" version="21.2.8" type="device">
  <diagram name="Page-1" id="cxeBOrwpK8nN50zcZmI6">
    <mxGraphModel dx="1285" dy="2304" grid="0" gridSize="10" guides="1" tooltips="1" connect="1" arrows="1" fold="1" page="0" pageScale="1" pageWidth="850" pageHeight="1100" math="0" shadow="0">
      <root>
        <mxCell id="0" />
        <mxCell id="1" parent="0" />
        <mxCell id="kS2l8qhDNlfA9cPAIQIV-5" value="" style="edgeStyle=orthogonalEdgeStyle;rounded=0;orthogonalLoop=1;jettySize=auto;html=1;" edge="1" parent="1" source="kS2l8qhDNlfA9cPAIQIV-1" target="kS2l8qhDNlfA9cPAIQIV-2">
          <mxGeometry relative="1" as="geometry" />
        </mxCell>
        <UserObject label="&lt;div style=&quot;&quot;&gt;&lt;span style=&quot;font-size: 11.29px;&quot;&gt;START&lt;/span&gt;&lt;/div&gt;" Function="EN_DIO_Error_T DIO_init(uint8_t pinNumber, EN_DIO_PORT_T portNumber, EN_DIO_DIRECTION_T direction);" tags="Flowchart" id="kS2l8qhDNlfA9cPAIQIV-1">
          <mxCell style="verticalAlign=middle;align=center;overflow=width;vsdxID=30;fillColor=#dae8fc;shape=stencil(tVLREoIgEPwaHnEQxsl3s/9gEpSJwDko7e+DsEkze2l627vdu5uFRaxyHe8FosR5sCcxqMZ3iO0Rpcp0ApQPCLEasUpaEC3Yi2lS3fOojOhsr3HDmObyMtsVcYqS29Qh5FEfklwrM5OXeUa/yjkcAwfr7TDpiyTfXvjkMR+Vw2A998qaBac5tAKHU1hq3i4oNwjRr9ofvayt/+Rk+yX/4iWA159KpXWKxJx/z0Bopfyw+g4=);strokeColor=#6c8ebf;spacingTop=-1;spacingBottom=-1;spacingLeft=-1;spacingRight=-1;points=[[0.5,1,0],[0.5,0,0],[0,0.5,0],[1,0.5,0]];labelBackgroundColor=none;rounded=1;html=1;whiteSpace=wrap;fontFamily=Calibri;" vertex="1" parent="1">
            <mxGeometry x="-354" y="-859" width="101" height="38" as="geometry" />
          </mxCell>
        </UserObject>
        <mxCell id="kS2l8qhDNlfA9cPAIQIV-6" value="FALSE" style="edgeStyle=orthogonalEdgeStyle;rounded=0;orthogonalLoop=1;jettySize=auto;html=1;" edge="1" parent="1" source="kS2l8qhDNlfA9cPAIQIV-2" target="kS2l8qhDNlfA9cPAIQIV-4">
          <mxGeometry relative="1" as="geometry" />
        </mxCell>
        <mxCell id="kS2l8qhDNlfA9cPAIQIV-9" value="TRUE" style="edgeStyle=orthogonalEdgeStyle;rounded=0;orthogonalLoop=1;jettySize=auto;html=1;" edge="1" parent="1" source="kS2l8qhDNlfA9cPAIQIV-2" target="kS2l8qhDNlfA9cPAIQIV-8">
          <mxGeometry relative="1" as="geometry" />
        </mxCell>
        <UserObject label="if .lcdMode ==&amp;nbsp;&lt;br&gt;LCD_8_BIT_MODE" Function="EN_DIO_Error_T DIO_init(uint8_t pinNumber, EN_DIO_PORT_T portNumber, EN_DIO_DIRECTION_T direction);" tags="Flowchart" id="kS2l8qhDNlfA9cPAIQIV-2">
          <mxCell style="vsdxID=219;fillColor=#fff2cc;shape=stencil(UzV2Ls5ILEhVNTIoLinKz04tz0wpyVA1dlE1MsrMy0gtyiwBslSNXVWNndPyi1LTi/JL81Ig/IJEkEoQKze/DGRCBUSfAUiHkUElhGcK4bpBVOZk5iGpNEVVikeloQHZpsK0YlWLz1QgA+HFtMycHEgIIcujBwlQCBKcxq4A);strokeColor=#d6b656;spacingTop=-1;spacingBottom=-1;spacingLeft=-1;spacingRight=-1;points=[[0,0.5,0],[1,0.5,0],[0.5,0,0],[0.5,1,0]];labelBackgroundColor=none;rounded=1;html=1;whiteSpace=wrap;fontFamily=Calibri;" vertex="1" parent="1">
            <mxGeometry x="-368" y="-787" width="129" height="86" as="geometry" />
          </mxCell>
        </UserObject>
        <mxCell id="kS2l8qhDNlfA9cPAIQIV-14" value="TRUE" style="edgeStyle=orthogonalEdgeStyle;rounded=0;orthogonalLoop=1;jettySize=auto;html=1;entryX=0.5;entryY=0;entryDx=0;entryDy=0;entryPerimeter=0;" edge="1" parent="1" source="kS2l8qhDNlfA9cPAIQIV-4" target="kS2l8qhDNlfA9cPAIQIV-10">
          <mxGeometry x="-0.7493" relative="1" as="geometry">
            <Array as="points">
              <mxPoint x="-114" y="-538" />
              <mxPoint x="-303" y="-538" />
            </Array>
            <mxPoint as="offset" />
          </mxGeometry>
        </mxCell>
        <mxCell id="kS2l8qhDNlfA9cPAIQIV-46" style="edgeStyle=orthogonalEdgeStyle;rounded=0;orthogonalLoop=1;jettySize=auto;html=1;" edge="1" parent="1" source="kS2l8qhDNlfA9cPAIQIV-4" target="kS2l8qhDNlfA9cPAIQIV-42">
          <mxGeometry relative="1" as="geometry" />
        </mxCell>
        <UserObject label="if .lcdMode ==&amp;nbsp;&lt;br&gt;LCD_4_BIT_MODE" Function="EN_DIO_Error_T DIO_init(uint8_t pinNumber, EN_DIO_PORT_T portNumber, EN_DIO_DIRECTION_T direction);" tags="Flowchart" id="kS2l8qhDNlfA9cPAIQIV-4">
          <mxCell style="vsdxID=219;fillColor=#fff2cc;shape=stencil(UzV2Ls5ILEhVNTIoLinKz04tz0wpyVA1dlE1MsrMy0gtyiwBslSNXVWNndPyi1LTi/JL81Ig/IJEkEoQKze/DGRCBUSfAUiHkUElhGcK4bpBVOZk5iGpNEVVikeloQHZpsK0YlWLz1QgA+HFtMycHEgIIcujBwlQCBKcxq4A);strokeColor=#d6b656;spacingTop=-1;spacingBottom=-1;spacingLeft=-1;spacingRight=-1;points=[[0,0.5,0],[1,0.5,0],[0.5,0,0],[0.5,1,0]];labelBackgroundColor=none;rounded=1;html=1;whiteSpace=wrap;fontFamily=Calibri;" vertex="1" parent="1">
            <mxGeometry x="-179" y="-787" width="129" height="86" as="geometry" />
          </mxCell>
        </UserObject>
        <mxCell id="kS2l8qhDNlfA9cPAIQIV-11" value="TRUE" style="edgeStyle=orthogonalEdgeStyle;rounded=0;orthogonalLoop=1;jettySize=auto;html=1;" edge="1" parent="1" source="kS2l8qhDNlfA9cPAIQIV-8" target="kS2l8qhDNlfA9cPAIQIV-10">
          <mxGeometry x="-0.1707" relative="1" as="geometry">
            <mxPoint as="offset" />
          </mxGeometry>
        </mxCell>
        <mxCell id="kS2l8qhDNlfA9cPAIQIV-51" value="FALSE" style="edgeStyle=orthogonalEdgeStyle;rounded=0;orthogonalLoop=1;jettySize=auto;html=1;" edge="1" parent="1" source="kS2l8qhDNlfA9cPAIQIV-8" target="kS2l8qhDNlfA9cPAIQIV-47">
          <mxGeometry x="-0.7353" relative="1" as="geometry">
            <mxPoint x="1" as="offset" />
          </mxGeometry>
        </mxCell>
        <UserObject label="if initializing pin 0,1,2,3&lt;br&gt;as OUTPUT == DIO_OK" Function="EN_DIO_Error_T DIO_init(uint8_t pinNumber, EN_DIO_PORT_T portNumber, EN_DIO_DIRECTION_T direction);" tags="Flowchart" id="kS2l8qhDNlfA9cPAIQIV-8">
          <mxCell style="vsdxID=219;fillColor=#fff2cc;shape=stencil(UzV2Ls5ILEhVNTIoLinKz04tz0wpyVA1dlE1MsrMy0gtyiwBslSNXVWNndPyi1LTi/JL81Ig/IJEkEoQKze/DGRCBUSfAUiHkUElhGcK4bpBVOZk5iGpNEVVikeloQHZpsK0YlWLz1QgA+HFtMycHEgIIcujBwlQCBKcxq4A);strokeColor=#d6b656;spacingTop=-1;spacingBottom=-1;spacingLeft=-1;spacingRight=-1;points=[[0,0.5,0],[1,0.5,0],[0.5,0,0],[0.5,1,0]];labelBackgroundColor=none;rounded=1;html=1;whiteSpace=wrap;fontFamily=Calibri;" vertex="1" parent="1">
            <mxGeometry x="-378.5" y="-662" width="150" height="100" as="geometry" />
          </mxCell>
        </UserObject>
        <mxCell id="kS2l8qhDNlfA9cPAIQIV-13" value="TRUE" style="edgeStyle=orthogonalEdgeStyle;rounded=0;orthogonalLoop=1;jettySize=auto;html=1;" edge="1" parent="1" source="kS2l8qhDNlfA9cPAIQIV-10" target="kS2l8qhDNlfA9cPAIQIV-12">
          <mxGeometry relative="1" as="geometry" />
        </mxCell>
        <mxCell id="kS2l8qhDNlfA9cPAIQIV-49" value="FALSE" style="edgeStyle=orthogonalEdgeStyle;rounded=0;orthogonalLoop=1;jettySize=auto;html=1;" edge="1" parent="1" source="kS2l8qhDNlfA9cPAIQIV-10" target="kS2l8qhDNlfA9cPAIQIV-47">
          <mxGeometry x="-0.4923" relative="1" as="geometry">
            <mxPoint as="offset" />
          </mxGeometry>
        </mxCell>
        <UserObject label="if initializing pin 4,5,6,7&lt;br&gt;as OUTPUT == DIO_OK" Function="EN_DIO_Error_T DIO_init(uint8_t pinNumber, EN_DIO_PORT_T portNumber, EN_DIO_DIRECTION_T direction);" tags="Flowchart" id="kS2l8qhDNlfA9cPAIQIV-10">
          <mxCell style="vsdxID=219;fillColor=#fff2cc;shape=stencil(UzV2Ls5ILEhVNTIoLinKz04tz0wpyVA1dlE1MsrMy0gtyiwBslSNXVWNndPyi1LTi/JL81Ig/IJEkEoQKze/DGRCBUSfAUiHkUElhGcK4bpBVOZk5iGpNEVVikeloQHZpsK0YlWLz1QgA+HFtMycHEgIIcujBwlQCBKcxq4A);strokeColor=#d6b656;spacingTop=-1;spacingBottom=-1;spacingLeft=-1;spacingRight=-1;points=[[0,0.5,0],[1,0.5,0],[0.5,0,0],[0.5,1,0]];labelBackgroundColor=none;rounded=1;html=1;whiteSpace=wrap;fontFamily=Calibri;" vertex="1" parent="1">
            <mxGeometry x="-378.5" y="-523" width="150" height="100" as="geometry" />
          </mxCell>
        </UserObject>
        <mxCell id="kS2l8qhDNlfA9cPAIQIV-18" value="TRUE" style="edgeStyle=orthogonalEdgeStyle;rounded=0;orthogonalLoop=1;jettySize=auto;html=1;" edge="1" parent="1" source="kS2l8qhDNlfA9cPAIQIV-12" target="kS2l8qhDNlfA9cPAIQIV-16">
          <mxGeometry relative="1" as="geometry" />
        </mxCell>
        <mxCell id="kS2l8qhDNlfA9cPAIQIV-48" value="FALSE" style="edgeStyle=orthogonalEdgeStyle;rounded=0;orthogonalLoop=1;jettySize=auto;html=1;entryX=0.5;entryY=1;entryDx=0;entryDy=0;entryPerimeter=0;" edge="1" parent="1" source="kS2l8qhDNlfA9cPAIQIV-12" target="kS2l8qhDNlfA9cPAIQIV-47">
          <mxGeometry x="-0.5133" relative="1" as="geometry">
            <mxPoint as="offset" />
          </mxGeometry>
        </mxCell>
        <UserObject label="if initializing pin RS, RW, EN&lt;br&gt;as OUTPUT == DIO_OK" Function="EN_DIO_Error_T DIO_init(uint8_t pinNumber, EN_DIO_PORT_T portNumber, EN_DIO_DIRECTION_T direction);" tags="Flowchart" id="kS2l8qhDNlfA9cPAIQIV-12">
          <mxCell style="vsdxID=219;fillColor=#fff2cc;shape=stencil(UzV2Ls5ILEhVNTIoLinKz04tz0wpyVA1dlE1MsrMy0gtyiwBslSNXVWNndPyi1LTi/JL81Ig/IJEkEoQKze/DGRCBUSfAUiHkUElhGcK4bpBVOZk5iGpNEVVikeloQHZpsK0YlWLz1QgA+HFtMycHEgIIcujBwlQCBKcxq4A);strokeColor=#d6b656;spacingTop=-1;spacingBottom=-1;spacingLeft=-1;spacingRight=-1;points=[[0,0.5,0],[1,0.5,0],[0.5,0,0],[0.5,1,0]];labelBackgroundColor=none;rounded=1;html=1;whiteSpace=wrap;fontFamily=Calibri;" vertex="1" parent="1">
            <mxGeometry x="-384.88" y="-379" width="162.75" height="108.5" as="geometry" />
          </mxCell>
        </UserObject>
        <mxCell id="kS2l8qhDNlfA9cPAIQIV-19" value="FALSE" style="edgeStyle=orthogonalEdgeStyle;rounded=0;orthogonalLoop=1;jettySize=auto;html=1;" edge="1" parent="1" source="kS2l8qhDNlfA9cPAIQIV-16" target="kS2l8qhDNlfA9cPAIQIV-17">
          <mxGeometry relative="1" as="geometry" />
        </mxCell>
        <mxCell id="kS2l8qhDNlfA9cPAIQIV-23" value="" style="edgeStyle=orthogonalEdgeStyle;rounded=0;orthogonalLoop=1;jettySize=auto;html=1;" edge="1" parent="1" source="kS2l8qhDNlfA9cPAIQIV-16" target="kS2l8qhDNlfA9cPAIQIV-20">
          <mxGeometry relative="1" as="geometry" />
        </mxCell>
        <UserObject label="if .lcdMode ==&amp;nbsp;&lt;br&gt;LCD_8_BIT_MODE" Function="EN_DIO_Error_T DIO_init(uint8_t pinNumber, EN_DIO_PORT_T portNumber, EN_DIO_DIRECTION_T direction);" tags="Flowchart" id="kS2l8qhDNlfA9cPAIQIV-16">
          <mxCell style="vsdxID=219;fillColor=#fff2cc;shape=stencil(UzV2Ls5ILEhVNTIoLinKz04tz0wpyVA1dlE1MsrMy0gtyiwBslSNXVWNndPyi1LTi/JL81Ig/IJEkEoQKze/DGRCBUSfAUiHkUElhGcK4bpBVOZk5iGpNEVVikeloQHZpsK0YlWLz1QgA+HFtMycHEgIIcujBwlQCBKcxq4A);strokeColor=#d6b656;spacingTop=-1;spacingBottom=-1;spacingLeft=-1;spacingRight=-1;points=[[0,0.5,0],[1,0.5,0],[0.5,0,0],[0.5,1,0]];labelBackgroundColor=none;rounded=1;html=1;whiteSpace=wrap;fontFamily=Calibri;" vertex="1" parent="1">
            <mxGeometry x="-368.01" y="-226" width="129" height="86" as="geometry" />
          </mxCell>
        </UserObject>
        <mxCell id="kS2l8qhDNlfA9cPAIQIV-22" value="" style="edgeStyle=orthogonalEdgeStyle;rounded=0;orthogonalLoop=1;jettySize=auto;html=1;" edge="1" parent="1" source="kS2l8qhDNlfA9cPAIQIV-17" target="kS2l8qhDNlfA9cPAIQIV-21">
          <mxGeometry relative="1" as="geometry" />
        </mxCell>
        <mxCell id="kS2l8qhDNlfA9cPAIQIV-41" value="FALSE" style="edgeStyle=orthogonalEdgeStyle;rounded=0;orthogonalLoop=1;jettySize=auto;html=1;" edge="1" parent="1" source="kS2l8qhDNlfA9cPAIQIV-17" target="kS2l8qhDNlfA9cPAIQIV-39">
          <mxGeometry x="-0.8102" relative="1" as="geometry">
            <mxPoint as="offset" />
          </mxGeometry>
        </mxCell>
        <UserObject label="if .lcdMode ==&amp;nbsp;&lt;br&gt;LCD_4_BIT_MODE" Function="EN_DIO_Error_T DIO_init(uint8_t pinNumber, EN_DIO_PORT_T portNumber, EN_DIO_DIRECTION_T direction);" tags="Flowchart" id="kS2l8qhDNlfA9cPAIQIV-17">
          <mxCell style="vsdxID=219;fillColor=#fff2cc;shape=stencil(UzV2Ls5ILEhVNTIoLinKz04tz0wpyVA1dlE1MsrMy0gtyiwBslSNXVWNndPyi1LTi/JL81Ig/IJEkEoQKze/DGRCBUSfAUiHkUElhGcK4bpBVOZk5iGpNEVVikeloQHZpsK0YlWLz1QgA+HFtMycHEgIIcujBwlQCBKcxq4A);strokeColor=#d6b656;spacingTop=-1;spacingBottom=-1;spacingLeft=-1;spacingRight=-1;points=[[0,0.5,0],[1,0.5,0],[0.5,0,0],[0.5,1,0]];labelBackgroundColor=none;rounded=1;html=1;whiteSpace=wrap;fontFamily=Calibri;" vertex="1" parent="1">
            <mxGeometry x="-179" y="-226" width="129" height="86" as="geometry" />
          </mxCell>
        </UserObject>
        <mxCell id="kS2l8qhDNlfA9cPAIQIV-27" style="edgeStyle=orthogonalEdgeStyle;rounded=0;orthogonalLoop=1;jettySize=auto;html=1;" edge="1" parent="1" source="kS2l8qhDNlfA9cPAIQIV-20" target="kS2l8qhDNlfA9cPAIQIV-24">
          <mxGeometry relative="1" as="geometry" />
        </mxCell>
        <mxCell id="kS2l8qhDNlfA9cPAIQIV-38" value="FALSE" style="edgeStyle=orthogonalEdgeStyle;rounded=0;orthogonalLoop=1;jettySize=auto;html=1;" edge="1" parent="1" source="kS2l8qhDNlfA9cPAIQIV-20" target="kS2l8qhDNlfA9cPAIQIV-33">
          <mxGeometry x="-0.8377" relative="1" as="geometry">
            <mxPoint as="offset" />
          </mxGeometry>
        </mxCell>
        <UserObject label="if writing cmd&lt;br&gt;&amp;nbsp;for choosing LCD&amp;nbsp; 8bit mode&lt;br&gt;&amp;nbsp;== LCD_OK" Function="EN_DIO_Error_T DIO_init(uint8_t pinNumber, EN_DIO_PORT_T portNumber, EN_DIO_DIRECTION_T direction);" tags="Flowchart" id="kS2l8qhDNlfA9cPAIQIV-20">
          <mxCell style="vsdxID=219;fillColor=#fff2cc;shape=stencil(UzV2Ls5ILEhVNTIoLinKz04tz0wpyVA1dlE1MsrMy0gtyiwBslSNXVWNndPyi1LTi/JL81Ig/IJEkEoQKze/DGRCBUSfAUiHkUElhGcK4bpBVOZk5iGpNEVVikeloQHZpsK0YlWLz1QgA+HFtMycHEgIIcujBwlQCBKcxq4A);strokeColor=#d6b656;spacingTop=-1;spacingBottom=-1;spacingLeft=-1;spacingRight=-1;points=[[0,0.5,0],[1,0.5,0],[0.5,0,0],[0.5,1,0]];labelBackgroundColor=none;rounded=1;html=1;whiteSpace=wrap;fontFamily=Calibri;" vertex="1" parent="1">
            <mxGeometry x="-386" y="-95" width="165" height="86" as="geometry" />
          </mxCell>
        </UserObject>
        <mxCell id="kS2l8qhDNlfA9cPAIQIV-28" style="edgeStyle=orthogonalEdgeStyle;rounded=0;orthogonalLoop=1;jettySize=auto;html=1;" edge="1" parent="1" source="kS2l8qhDNlfA9cPAIQIV-21" target="kS2l8qhDNlfA9cPAIQIV-24">
          <mxGeometry relative="1" as="geometry" />
        </mxCell>
        <mxCell id="kS2l8qhDNlfA9cPAIQIV-40" value="FALSE" style="edgeStyle=orthogonalEdgeStyle;rounded=0;orthogonalLoop=1;jettySize=auto;html=1;" edge="1" parent="1" source="kS2l8qhDNlfA9cPAIQIV-21" target="kS2l8qhDNlfA9cPAIQIV-39">
          <mxGeometry x="-0.8132" relative="1" as="geometry">
            <mxPoint as="offset" />
          </mxGeometry>
        </mxCell>
        <UserObject label="if writing cmds&lt;br&gt;&amp;nbsp;for choosing LCD&amp;nbsp; 8bit mode&lt;br&gt;&amp;nbsp;== LCD_OK" Function="EN_DIO_Error_T DIO_init(uint8_t pinNumber, EN_DIO_PORT_T portNumber, EN_DIO_DIRECTION_T direction);" tags="Flowchart" id="kS2l8qhDNlfA9cPAIQIV-21">
          <mxCell style="vsdxID=219;fillColor=#fff2cc;shape=stencil(UzV2Ls5ILEhVNTIoLinKz04tz0wpyVA1dlE1MsrMy0gtyiwBslSNXVWNndPyi1LTi/JL81Ig/IJEkEoQKze/DGRCBUSfAUiHkUElhGcK4bpBVOZk5iGpNEVVikeloQHZpsK0YlWLz1QgA+HFtMycHEgIIcujBwlQCBKcxq4A);strokeColor=#d6b656;spacingTop=-1;spacingBottom=-1;spacingLeft=-1;spacingRight=-1;points=[[0,0.5,0],[1,0.5,0],[0.5,0,0],[0.5,1,0]];labelBackgroundColor=none;rounded=1;html=1;whiteSpace=wrap;fontFamily=Calibri;" vertex="1" parent="1">
            <mxGeometry x="-197" y="-95" width="165" height="86" as="geometry" />
          </mxCell>
        </UserObject>
        <mxCell id="kS2l8qhDNlfA9cPAIQIV-26" value="" style="edgeStyle=orthogonalEdgeStyle;rounded=0;orthogonalLoop=1;jettySize=auto;html=1;" edge="1" parent="1" source="kS2l8qhDNlfA9cPAIQIV-24" target="kS2l8qhDNlfA9cPAIQIV-25">
          <mxGeometry relative="1" as="geometry" />
        </mxCell>
        <mxCell id="kS2l8qhDNlfA9cPAIQIV-37" value="FALSE" style="edgeStyle=orthogonalEdgeStyle;rounded=0;orthogonalLoop=1;jettySize=auto;html=1;" edge="1" parent="1" source="kS2l8qhDNlfA9cPAIQIV-24" target="kS2l8qhDNlfA9cPAIQIV-33">
          <mxGeometry x="-0.4799" relative="1" as="geometry">
            <mxPoint as="offset" />
          </mxGeometry>
        </mxCell>
        <UserObject label="if writing cmd&lt;br&gt;&amp;nbsp;for DSPLY ON CRSR OFF&lt;br&gt;== LCD_OK" Function="EN_DIO_Error_T DIO_init(uint8_t pinNumber, EN_DIO_PORT_T portNumber, EN_DIO_DIRECTION_T direction);" tags="Flowchart" id="kS2l8qhDNlfA9cPAIQIV-24">
          <mxCell style="vsdxID=219;fillColor=#fff2cc;shape=stencil(UzV2Ls5ILEhVNTIoLinKz04tz0wpyVA1dlE1MsrMy0gtyiwBslSNXVWNndPyi1LTi/JL81Ig/IJEkEoQKze/DGRCBUSfAUiHkUElhGcK4bpBVOZk5iGpNEVVikeloQHZpsK0YlWLz1QgA+HFtMycHEgIIcujBwlQCBKcxq4A);strokeColor=#d6b656;spacingTop=-1;spacingBottom=-1;spacingLeft=-1;spacingRight=-1;points=[[0,0.5,0],[1,0.5,0],[0.5,0,0],[0.5,1,0]];labelBackgroundColor=none;rounded=1;html=1;whiteSpace=wrap;fontFamily=Calibri;" vertex="1" parent="1">
            <mxGeometry x="-295" y="39" width="165" height="86" as="geometry" />
          </mxCell>
        </UserObject>
        <mxCell id="kS2l8qhDNlfA9cPAIQIV-30" value="" style="edgeStyle=orthogonalEdgeStyle;rounded=0;orthogonalLoop=1;jettySize=auto;html=1;" edge="1" parent="1" source="kS2l8qhDNlfA9cPAIQIV-25" target="kS2l8qhDNlfA9cPAIQIV-29">
          <mxGeometry relative="1" as="geometry" />
        </mxCell>
        <mxCell id="kS2l8qhDNlfA9cPAIQIV-35" value="FALSE" style="edgeStyle=orthogonalEdgeStyle;rounded=0;orthogonalLoop=1;jettySize=auto;html=1;" edge="1" parent="1" source="kS2l8qhDNlfA9cPAIQIV-25" target="kS2l8qhDNlfA9cPAIQIV-33">
          <mxGeometry x="-0.3205" relative="1" as="geometry">
            <mxPoint as="offset" />
          </mxGeometry>
        </mxCell>
        <UserObject label="if writing cmd&lt;br&gt;&amp;nbsp;for clearing LCD&lt;br&gt;== LCD_OK" Function="EN_DIO_Error_T DIO_init(uint8_t pinNumber, EN_DIO_PORT_T portNumber, EN_DIO_DIRECTION_T direction);" tags="Flowchart" id="kS2l8qhDNlfA9cPAIQIV-25">
          <mxCell style="vsdxID=219;fillColor=#fff2cc;shape=stencil(UzV2Ls5ILEhVNTIoLinKz04tz0wpyVA1dlE1MsrMy0gtyiwBslSNXVWNndPyi1LTi/JL81Ig/IJEkEoQKze/DGRCBUSfAUiHkUElhGcK4bpBVOZk5iGpNEVVikeloQHZpsK0YlWLz1QgA+HFtMycHEgIIcujBwlQCBKcxq4A);strokeColor=#d6b656;spacingTop=-1;spacingBottom=-1;spacingLeft=-1;spacingRight=-1;points=[[0,0.5,0],[1,0.5,0],[0.5,0,0],[0.5,1,0]];labelBackgroundColor=none;rounded=1;html=1;whiteSpace=wrap;fontFamily=Calibri;" vertex="1" parent="1">
            <mxGeometry x="-295" y="162" width="165" height="86" as="geometry" />
          </mxCell>
        </UserObject>
        <mxCell id="kS2l8qhDNlfA9cPAIQIV-32" value="" style="edgeStyle=orthogonalEdgeStyle;rounded=0;orthogonalLoop=1;jettySize=auto;html=1;" edge="1" parent="1" source="kS2l8qhDNlfA9cPAIQIV-29" target="kS2l8qhDNlfA9cPAIQIV-31">
          <mxGeometry relative="1" as="geometry" />
        </mxCell>
        <mxCell id="kS2l8qhDNlfA9cPAIQIV-34" value="FALSE" style="edgeStyle=orthogonalEdgeStyle;rounded=0;orthogonalLoop=1;jettySize=auto;html=1;" edge="1" parent="1" source="kS2l8qhDNlfA9cPAIQIV-29" target="kS2l8qhDNlfA9cPAIQIV-33">
          <mxGeometry relative="1" as="geometry" />
        </mxCell>
        <UserObject label="if writing cmd&lt;br&gt;&amp;nbsp;for returning home&lt;br&gt;== LCD_OK" Function="EN_DIO_Error_T DIO_init(uint8_t pinNumber, EN_DIO_PORT_T portNumber, EN_DIO_DIRECTION_T direction);" tags="Flowchart" id="kS2l8qhDNlfA9cPAIQIV-29">
          <mxCell style="vsdxID=219;fillColor=#fff2cc;shape=stencil(UzV2Ls5ILEhVNTIoLinKz04tz0wpyVA1dlE1MsrMy0gtyiwBslSNXVWNndPyi1LTi/JL81Ig/IJEkEoQKze/DGRCBUSfAUiHkUElhGcK4bpBVOZk5iGpNEVVikeloQHZpsK0YlWLz1QgA+HFtMycHEgIIcujBwlQCBKcxq4A);strokeColor=#d6b656;spacingTop=-1;spacingBottom=-1;spacingLeft=-1;spacingRight=-1;points=[[0,0.5,0],[1,0.5,0],[0.5,0,0],[0.5,1,0]];labelBackgroundColor=none;rounded=1;html=1;whiteSpace=wrap;fontFamily=Calibri;" vertex="1" parent="1">
            <mxGeometry x="-295" y="285" width="165" height="86" as="geometry" />
          </mxCell>
        </UserObject>
        <UserObject label="&lt;div style=&quot;font-size: 1px&quot;&gt;&lt;font style=&quot;font-size: 11.29px; direction: ltr; letter-spacing: 0px; line-height: 120%; opacity: 1;&quot;&gt;LCD_OK&lt;/font&gt;&lt;/div&gt;" Function="EN_DIO_Error_T DIO_init(uint8_t pinNumber, EN_DIO_PORT_T portNumber, EN_DIO_DIRECTION_T direction);" tags="Flowchart" id="kS2l8qhDNlfA9cPAIQIV-31">
          <mxCell style="verticalAlign=middle;align=center;overflow=width;vsdxID=52;fillColor=#d5e8d4;shape=stencil(tVLREoIgEPwaHnEQxsl3s/9gEpSJwDko7e+DsEkze2l627vdu5uFRaxyHe8FosR5sCcxqMZ3iO0Rpcp0ApQPCLEasUpaEC3Yi2lS3fOojOhsr3HDmObyMtsVcYqS29Qh5FEfklwrM5OXeUa/yjkcAwfr7TDpiyTfXvjkMR+Vw2A998qaBac5tAKHU1hq3i4oNwjRr9ofvayt/+Rk+yX/4iWA159KpXWKxJx/z0Bopfyw+g4=);strokeColor=#82b366;spacingTop=-1;spacingBottom=-1;spacingLeft=-1;spacingRight=-1;points=[[0.5,1,0],[0.5,0,0],[0,0.5,0],[1,0.5,0]];labelBackgroundColor=none;rounded=1;html=1;whiteSpace=wrap;fontFamily=Calibri;" vertex="1" parent="1">
            <mxGeometry x="-263" y="408" width="101" height="38" as="geometry" />
          </mxCell>
        </UserObject>
        <UserObject label="&lt;div style=&quot;font-size: 1px&quot;&gt;&lt;font style=&quot;font-size: 11.29px; direction: ltr; letter-spacing: 0px; line-height: 120%; opacity: 1;&quot;&gt;LCD_NOK&lt;/font&gt;&lt;/div&gt;" Function="EN_DIO_Error_T DIO_init(uint8_t pinNumber, EN_DIO_PORT_T portNumber, EN_DIO_DIRECTION_T direction);" tags="Flowchart" id="kS2l8qhDNlfA9cPAIQIV-33">
          <mxCell style="verticalAlign=middle;align=center;overflow=width;vsdxID=52;fillColor=#f8cecc;shape=stencil(tVLREoIgEPwaHnEQxsl3s/9gEpSJwDko7e+DsEkze2l627vdu5uFRaxyHe8FosR5sCcxqMZ3iO0Rpcp0ApQPCLEasUpaEC3Yi2lS3fOojOhsr3HDmObyMtsVcYqS29Qh5FEfklwrM5OXeUa/yjkcAwfr7TDpiyTfXvjkMR+Vw2A998qaBac5tAKHU1hq3i4oNwjRr9ofvayt/+Rk+yX/4iWA159KpXWKxJx/z0Bopfyw+g4=);strokeColor=#b85450;spacingTop=-1;spacingBottom=-1;spacingLeft=-1;spacingRight=-1;points=[[0.5,1,0],[0.5,0,0],[0,0.5,0],[1,0.5,0]];labelBackgroundColor=none;rounded=1;html=1;whiteSpace=wrap;fontFamily=Calibri;" vertex="1" parent="1">
            <mxGeometry x="-531" y="408" width="101" height="38" as="geometry" />
          </mxCell>
        </UserObject>
        <UserObject label="&lt;div style=&quot;font-size: 1px&quot;&gt;&lt;font style=&quot;font-size: 11.29px; direction: ltr; letter-spacing: 0px; line-height: 120%; opacity: 1;&quot;&gt;LCD_NOK&lt;/font&gt;&lt;/div&gt;" Function="EN_DIO_Error_T DIO_init(uint8_t pinNumber, EN_DIO_PORT_T portNumber, EN_DIO_DIRECTION_T direction);" tags="Flowchart" id="kS2l8qhDNlfA9cPAIQIV-39">
          <mxCell style="verticalAlign=middle;align=center;overflow=width;vsdxID=52;fillColor=#f8cecc;shape=stencil(tVLREoIgEPwaHnEQxsl3s/9gEpSJwDko7e+DsEkze2l627vdu5uFRaxyHe8FosR5sCcxqMZ3iO0Rpcp0ApQPCLEasUpaEC3Yi2lS3fOojOhsr3HDmObyMtsVcYqS29Qh5FEfklwrM5OXeUa/yjkcAwfr7TDpiyTfXvjkMR+Vw2A998qaBac5tAKHU1hq3i4oNwjRr9ofvayt/+Rk+yX/4iWA159KpXWKxJx/z0Bopfyw+g4=);strokeColor=#b85450;spacingTop=-1;spacingBottom=-1;spacingLeft=-1;spacingRight=-1;points=[[0.5,1,0],[0.5,0,0],[0,0.5,0],[1,0.5,0]];labelBackgroundColor=none;rounded=1;html=1;whiteSpace=wrap;fontFamily=Calibri;" vertex="1" parent="1">
            <mxGeometry x="25" y="408" width="101" height="38" as="geometry" />
          </mxCell>
        </UserObject>
        <UserObject label="&lt;div style=&quot;font-size: 1px&quot;&gt;&lt;font style=&quot;font-size: 11.29px; direction: ltr; letter-spacing: 0px; line-height: 120%; opacity: 1;&quot;&gt;LCD_NOK&lt;/font&gt;&lt;/div&gt;" Function="EN_DIO_Error_T DIO_init(uint8_t pinNumber, EN_DIO_PORT_T portNumber, EN_DIO_DIRECTION_T direction);" tags="Flowchart" id="kS2l8qhDNlfA9cPAIQIV-42">
          <mxCell style="verticalAlign=middle;align=center;overflow=width;vsdxID=52;fillColor=#f8cecc;shape=stencil(tVLREoIgEPwaHnEQxsl3s/9gEpSJwDko7e+DsEkze2l627vdu5uFRaxyHe8FosR5sCcxqMZ3iO0Rpcp0ApQPCLEasUpaEC3Yi2lS3fOojOhsr3HDmObyMtsVcYqS29Qh5FEfklwrM5OXeUa/yjkcAwfr7TDpiyTfXvjkMR+Vw2A998qaBac5tAKHU1hq3i4oNwjRr9ofvayt/+Rk+yX/4iWA159KpXWKxJx/z0Bopfyw+g4=);strokeColor=#b85450;spacingTop=-1;spacingBottom=-1;spacingLeft=-1;spacingRight=-1;points=[[0.5,1,0],[0.5,0,0],[0,0.5,0],[1,0.5,0]];labelBackgroundColor=none;rounded=1;html=1;whiteSpace=wrap;fontFamily=Calibri;" vertex="1" parent="1">
            <mxGeometry x="25" y="-492" width="101" height="38" as="geometry" />
          </mxCell>
        </UserObject>
        <UserObject label="&lt;div style=&quot;font-size: 1px&quot;&gt;&lt;font style=&quot;font-size: 11.29px; direction: ltr; letter-spacing: 0px; line-height: 120%; opacity: 1;&quot;&gt;LCD_NOK&lt;/font&gt;&lt;/div&gt;" Function="EN_DIO_Error_T DIO_init(uint8_t pinNumber, EN_DIO_PORT_T portNumber, EN_DIO_DIRECTION_T direction);" tags="Flowchart" id="kS2l8qhDNlfA9cPAIQIV-47">
          <mxCell style="verticalAlign=middle;align=center;overflow=width;vsdxID=52;fillColor=#f8cecc;shape=stencil(tVLREoIgEPwaHnEQxsl3s/9gEpSJwDko7e+DsEkze2l627vdu5uFRaxyHe8FosR5sCcxqMZ3iO0Rpcp0ApQPCLEasUpaEC3Yi2lS3fOojOhsr3HDmObyMtsVcYqS29Qh5FEfklwrM5OXeUa/yjkcAwfr7TDpiyTfXvjkMR+Vw2A998qaBac5tAKHU1hq3i4oNwjRr9ofvayt/+Rk+yX/4iWA159KpXWKxJx/z0Bopfyw+g4=);strokeColor=#b85450;spacingTop=-1;spacingBottom=-1;spacingLeft=-1;spacingRight=-1;points=[[0.5,1,0],[0.5,0,0],[0,0.5,0],[1,0.5,0]];labelBackgroundColor=none;rounded=1;html=1;whiteSpace=wrap;fontFamily=Calibri;" vertex="1" parent="1">
            <mxGeometry x="-531" y="-415.5" width="101" height="38" as="geometry" />
          </mxCell>
        </UserObject>
        <mxCell id="kS2l8qhDNlfA9cPAIQIV-54" value="" style="edgeStyle=orthogonalEdgeStyle;rounded=0;orthogonalLoop=1;jettySize=auto;html=1;" edge="1" parent="1" source="kS2l8qhDNlfA9cPAIQIV-52" target="kS2l8qhDNlfA9cPAIQIV-53">
          <mxGeometry relative="1" as="geometry" />
        </mxCell>
        <UserObject label="&lt;div style=&quot;&quot;&gt;&lt;span style=&quot;font-size: 11.29px;&quot;&gt;START&lt;/span&gt;&lt;/div&gt;" Function="EN_DIO_Error_T DIO_init(uint8_t pinNumber, EN_DIO_PORT_T portNumber, EN_DIO_DIRECTION_T direction);" tags="Flowchart" id="kS2l8qhDNlfA9cPAIQIV-52">
          <mxCell style="verticalAlign=middle;align=center;overflow=width;vsdxID=30;fillColor=#dae8fc;shape=stencil(tVLREoIgEPwaHnEQxsl3s/9gEpSJwDko7e+DsEkze2l627vdu5uFRaxyHe8FosR5sCcxqMZ3iO0Rpcp0ApQPCLEasUpaEC3Yi2lS3fOojOhsr3HDmObyMtsVcYqS29Qh5FEfklwrM5OXeUa/yjkcAwfr7TDpiyTfXvjkMR+Vw2A998qaBac5tAKHU1hq3i4oNwjRr9ofvayt/+Rk+yX/4iWA159KpXWKxJx/z0Bopfyw+g4=);strokeColor=#6c8ebf;spacingTop=-1;spacingBottom=-1;spacingLeft=-1;spacingRight=-1;points=[[0.5,1,0],[0.5,0,0],[0,0.5,0],[1,0.5,0]];labelBackgroundColor=none;rounded=1;html=1;whiteSpace=wrap;fontFamily=Calibri;" vertex="1" parent="1">
            <mxGeometry x="351" y="-859" width="101" height="38" as="geometry" />
          </mxCell>
        </UserObject>
        <mxCell id="kS2l8qhDNlfA9cPAIQIV-58" value="TRUE" style="edgeStyle=orthogonalEdgeStyle;rounded=0;orthogonalLoop=1;jettySize=auto;html=1;" edge="1" parent="1" source="kS2l8qhDNlfA9cPAIQIV-53" target="kS2l8qhDNlfA9cPAIQIV-56">
          <mxGeometry relative="1" as="geometry" />
        </mxCell>
        <mxCell id="kS2l8qhDNlfA9cPAIQIV-106" value="FALSE" style="edgeStyle=orthogonalEdgeStyle;rounded=0;orthogonalLoop=1;jettySize=auto;html=1;" edge="1" parent="1" source="kS2l8qhDNlfA9cPAIQIV-53" target="kS2l8qhDNlfA9cPAIQIV-99">
          <mxGeometry x="-0.7343" relative="1" as="geometry">
            <Array as="points">
              <mxPoint x="703" y="-765" />
              <mxPoint x="703" y="-665" />
            </Array>
            <mxPoint as="offset" />
          </mxGeometry>
        </mxCell>
        <UserObject label="if writing HIGH on&lt;br&gt;on RS == DIO_OK" Function="EN_DIO_Error_T DIO_init(uint8_t pinNumber, EN_DIO_PORT_T portNumber, EN_DIO_DIRECTION_T direction);" tags="Flowchart" id="kS2l8qhDNlfA9cPAIQIV-53">
          <mxCell style="vsdxID=219;fillColor=#fff2cc;shape=stencil(UzV2Ls5ILEhVNTIoLinKz04tz0wpyVA1dlE1MsrMy0gtyiwBslSNXVWNndPyi1LTi/JL81Ig/IJEkEoQKze/DGRCBUSfAUiHkUElhGcK4bpBVOZk5iGpNEVVikeloQHZpsK0YlWLz1QgA+HFtMycHEgIIcujBwlQCBKcxq4A);strokeColor=#d6b656;spacingTop=-1;spacingBottom=-1;spacingLeft=-1;spacingRight=-1;points=[[0,0.5,0],[1,0.5,0],[0.5,0,0],[0.5,1,0]];labelBackgroundColor=none;rounded=1;html=1;whiteSpace=wrap;fontFamily=Calibri;" vertex="1" parent="1">
            <mxGeometry x="326.5" y="-797" width="150" height="64" as="geometry" />
          </mxCell>
        </UserObject>
        <mxCell id="kS2l8qhDNlfA9cPAIQIV-55" value="FALSE" style="edgeStyle=orthogonalEdgeStyle;rounded=0;orthogonalLoop=1;jettySize=auto;html=1;" edge="1" source="kS2l8qhDNlfA9cPAIQIV-56" target="kS2l8qhDNlfA9cPAIQIV-57" parent="1">
          <mxGeometry relative="1" as="geometry" />
        </mxCell>
        <mxCell id="kS2l8qhDNlfA9cPAIQIV-60" value="TRUE" style="edgeStyle=orthogonalEdgeStyle;rounded=0;orthogonalLoop=1;jettySize=auto;html=1;" edge="1" parent="1" source="kS2l8qhDNlfA9cPAIQIV-56" target="kS2l8qhDNlfA9cPAIQIV-59">
          <mxGeometry relative="1" as="geometry" />
        </mxCell>
        <UserObject label="if .lcdMode ==&amp;nbsp;&lt;br&gt;LCD_8_BIT_MODE" Function="EN_DIO_Error_T DIO_init(uint8_t pinNumber, EN_DIO_PORT_T portNumber, EN_DIO_DIRECTION_T direction);" tags="Flowchart" id="kS2l8qhDNlfA9cPAIQIV-56">
          <mxCell style="vsdxID=219;fillColor=#fff2cc;shape=stencil(UzV2Ls5ILEhVNTIoLinKz04tz0wpyVA1dlE1MsrMy0gtyiwBslSNXVWNndPyi1LTi/JL81Ig/IJEkEoQKze/DGRCBUSfAUiHkUElhGcK4bpBVOZk5iGpNEVVikeloQHZpsK0YlWLz1QgA+HFtMycHEgIIcujBwlQCBKcxq4A);strokeColor=#d6b656;spacingTop=-1;spacingBottom=-1;spacingLeft=-1;spacingRight=-1;points=[[0,0.5,0],[1,0.5,0],[0.5,0,0],[0.5,1,0]];labelBackgroundColor=none;rounded=1;html=1;whiteSpace=wrap;fontFamily=Calibri;" vertex="1" parent="1">
            <mxGeometry x="337" y="-708" width="129" height="86" as="geometry" />
          </mxCell>
        </UserObject>
        <mxCell id="kS2l8qhDNlfA9cPAIQIV-68" value="TRUE" style="edgeStyle=orthogonalEdgeStyle;rounded=0;orthogonalLoop=1;jettySize=auto;html=1;" edge="1" parent="1" source="kS2l8qhDNlfA9cPAIQIV-57" target="kS2l8qhDNlfA9cPAIQIV-67">
          <mxGeometry relative="1" as="geometry" />
        </mxCell>
        <mxCell id="kS2l8qhDNlfA9cPAIQIV-102" value="FALSE" style="edgeStyle=orthogonalEdgeStyle;rounded=0;orthogonalLoop=1;jettySize=auto;html=1;" edge="1" parent="1" source="kS2l8qhDNlfA9cPAIQIV-57" target="kS2l8qhDNlfA9cPAIQIV-99">
          <mxGeometry x="-0.5389" y="-2" relative="1" as="geometry">
            <mxPoint as="offset" />
          </mxGeometry>
        </mxCell>
        <UserObject label="if .lcdMode ==&amp;nbsp;&lt;br&gt;LCD_4_BIT_MODE" Function="EN_DIO_Error_T DIO_init(uint8_t pinNumber, EN_DIO_PORT_T portNumber, EN_DIO_DIRECTION_T direction);" tags="Flowchart" id="kS2l8qhDNlfA9cPAIQIV-57">
          <mxCell style="vsdxID=219;fillColor=#fff2cc;shape=stencil(UzV2Ls5ILEhVNTIoLinKz04tz0wpyVA1dlE1MsrMy0gtyiwBslSNXVWNndPyi1LTi/JL81Ig/IJEkEoQKze/DGRCBUSfAUiHkUElhGcK4bpBVOZk5iGpNEVVikeloQHZpsK0YlWLz1QgA+HFtMycHEgIIcujBwlQCBKcxq4A);strokeColor=#d6b656;spacingTop=-1;spacingBottom=-1;spacingLeft=-1;spacingRight=-1;points=[[0,0.5,0],[1,0.5,0],[0.5,0,0],[0.5,1,0]];labelBackgroundColor=none;rounded=1;html=1;whiteSpace=wrap;fontFamily=Calibri;" vertex="1" parent="1">
            <mxGeometry x="526" y="-708" width="129" height="86" as="geometry" />
          </mxCell>
        </UserObject>
        <mxCell id="kS2l8qhDNlfA9cPAIQIV-62" value="" style="edgeStyle=orthogonalEdgeStyle;rounded=0;orthogonalLoop=1;jettySize=auto;html=1;" edge="1" parent="1" source="kS2l8qhDNlfA9cPAIQIV-59" target="kS2l8qhDNlfA9cPAIQIV-61">
          <mxGeometry relative="1" as="geometry" />
        </mxCell>
        <mxCell id="kS2l8qhDNlfA9cPAIQIV-59" value="&lt;span style=&quot;font-family: Calibri; font-size: 12px;&quot;&gt;write char passed on LCD_DATA_PORT&lt;/span&gt;" style="rounded=0;whiteSpace=wrap;html=1;fontSize=16;fillColor=#d5e8d4;strokeColor=#82b366;" vertex="1" parent="1">
          <mxGeometry x="349.75" y="-597" width="103.5" height="44" as="geometry" />
        </mxCell>
        <mxCell id="kS2l8qhDNlfA9cPAIQIV-64" value="TRUE" style="edgeStyle=orthogonalEdgeStyle;rounded=0;orthogonalLoop=1;jettySize=auto;html=1;" edge="1" parent="1" source="kS2l8qhDNlfA9cPAIQIV-61" target="kS2l8qhDNlfA9cPAIQIV-63">
          <mxGeometry relative="1" as="geometry" />
        </mxCell>
        <mxCell id="kS2l8qhDNlfA9cPAIQIV-97" style="edgeStyle=orthogonalEdgeStyle;rounded=0;orthogonalLoop=1;jettySize=auto;html=1;" edge="1" parent="1" source="kS2l8qhDNlfA9cPAIQIV-61" target="kS2l8qhDNlfA9cPAIQIV-92">
          <mxGeometry relative="1" as="geometry">
            <Array as="points">
              <mxPoint x="494" y="-495" />
            </Array>
          </mxGeometry>
        </mxCell>
        <UserObject label="if writing HIGH on&lt;br&gt;on EN == DIO_OK" Function="EN_DIO_Error_T DIO_init(uint8_t pinNumber, EN_DIO_PORT_T portNumber, EN_DIO_DIRECTION_T direction);" tags="Flowchart" id="kS2l8qhDNlfA9cPAIQIV-61">
          <mxCell style="vsdxID=219;fillColor=#fff2cc;shape=stencil(UzV2Ls5ILEhVNTIoLinKz04tz0wpyVA1dlE1MsrMy0gtyiwBslSNXVWNndPyi1LTi/JL81Ig/IJEkEoQKze/DGRCBUSfAUiHkUElhGcK4bpBVOZk5iGpNEVVikeloQHZpsK0YlWLz1QgA+HFtMycHEgIIcujBwlQCBKcxq4A);strokeColor=#d6b656;spacingTop=-1;spacingBottom=-1;spacingLeft=-1;spacingRight=-1;points=[[0,0.5,0],[1,0.5,0],[0.5,0,0],[0.5,1,0]];labelBackgroundColor=none;rounded=1;html=1;whiteSpace=wrap;fontFamily=Calibri;" vertex="1" parent="1">
            <mxGeometry x="326.5" y="-527" width="150" height="64" as="geometry" />
          </mxCell>
        </UserObject>
        <mxCell id="kS2l8qhDNlfA9cPAIQIV-66" value="" style="edgeStyle=orthogonalEdgeStyle;rounded=0;orthogonalLoop=1;jettySize=auto;html=1;" edge="1" parent="1" source="kS2l8qhDNlfA9cPAIQIV-63" target="kS2l8qhDNlfA9cPAIQIV-65">
          <mxGeometry relative="1" as="geometry" />
        </mxCell>
        <mxCell id="kS2l8qhDNlfA9cPAIQIV-63" value="&lt;span style=&quot;font-family: Calibri; font-size: 12px;&quot;&gt;Delay 1ms&lt;/span&gt;" style="rounded=0;whiteSpace=wrap;html=1;fontSize=16;fillColor=#d5e8d4;strokeColor=#82b366;" vertex="1" parent="1">
          <mxGeometry x="350" y="-428" width="103.5" height="44" as="geometry" />
        </mxCell>
        <mxCell id="kS2l8qhDNlfA9cPAIQIV-105" value="TRUE" style="edgeStyle=orthogonalEdgeStyle;rounded=0;orthogonalLoop=1;jettySize=auto;html=1;" edge="1" parent="1" source="kS2l8qhDNlfA9cPAIQIV-65" target="kS2l8qhDNlfA9cPAIQIV-104">
          <mxGeometry relative="1" as="geometry" />
        </mxCell>
        <UserObject label="if writing LOW on&lt;br&gt;on EN == DIO_OK" Function="EN_DIO_Error_T DIO_init(uint8_t pinNumber, EN_DIO_PORT_T portNumber, EN_DIO_DIRECTION_T direction);" tags="Flowchart" id="kS2l8qhDNlfA9cPAIQIV-65">
          <mxCell style="vsdxID=219;fillColor=#fff2cc;shape=stencil(UzV2Ls5ILEhVNTIoLinKz04tz0wpyVA1dlE1MsrMy0gtyiwBslSNXVWNndPyi1LTi/JL81Ig/IJEkEoQKze/DGRCBUSfAUiHkUElhGcK4bpBVOZk5iGpNEVVikeloQHZpsK0YlWLz1QgA+HFtMycHEgIIcujBwlQCBKcxq4A);strokeColor=#d6b656;spacingTop=-1;spacingBottom=-1;spacingLeft=-1;spacingRight=-1;points=[[0,0.5,0],[1,0.5,0],[0.5,0,0],[0.5,1,0]];labelBackgroundColor=none;rounded=1;html=1;whiteSpace=wrap;fontFamily=Calibri;" vertex="1" parent="1">
            <mxGeometry x="326.5" y="-362.5" width="150" height="64" as="geometry" />
          </mxCell>
        </UserObject>
        <mxCell id="kS2l8qhDNlfA9cPAIQIV-76" style="edgeStyle=orthogonalEdgeStyle;rounded=0;orthogonalLoop=1;jettySize=auto;html=1;" edge="1" parent="1" source="kS2l8qhDNlfA9cPAIQIV-67" target="kS2l8qhDNlfA9cPAIQIV-70">
          <mxGeometry relative="1" as="geometry" />
        </mxCell>
        <mxCell id="kS2l8qhDNlfA9cPAIQIV-67" value="&lt;span style=&quot;font-family: Calibri; font-size: 12px;&quot;&gt;write higer char nipple passed on LCD_DATA_PORT&lt;/span&gt;" style="rounded=0;whiteSpace=wrap;html=1;fontSize=16;fillColor=#d5e8d4;strokeColor=#82b366;" vertex="1" parent="1">
          <mxGeometry x="518" y="-597" width="145" height="44" as="geometry" />
        </mxCell>
        <mxCell id="kS2l8qhDNlfA9cPAIQIV-69" value="TRUE" style="edgeStyle=orthogonalEdgeStyle;rounded=0;orthogonalLoop=1;jettySize=auto;html=1;" edge="1" source="kS2l8qhDNlfA9cPAIQIV-70" target="kS2l8qhDNlfA9cPAIQIV-72" parent="1">
          <mxGeometry relative="1" as="geometry" />
        </mxCell>
        <mxCell id="kS2l8qhDNlfA9cPAIQIV-98" value="False" style="edgeStyle=orthogonalEdgeStyle;rounded=0;orthogonalLoop=1;jettySize=auto;html=1;" edge="1" parent="1" source="kS2l8qhDNlfA9cPAIQIV-70" target="kS2l8qhDNlfA9cPAIQIV-92">
          <mxGeometry x="-0.8252" y="-14" relative="1" as="geometry">
            <Array as="points">
              <mxPoint x="494" y="-495" />
            </Array>
            <mxPoint x="14" y="-14" as="offset" />
          </mxGeometry>
        </mxCell>
        <UserObject label="if writing HIGH on&lt;br&gt;on EN == DIO_OK" Function="EN_DIO_Error_T DIO_init(uint8_t pinNumber, EN_DIO_PORT_T portNumber, EN_DIO_DIRECTION_T direction);" tags="Flowchart" id="kS2l8qhDNlfA9cPAIQIV-70">
          <mxCell style="vsdxID=219;fillColor=#fff2cc;shape=stencil(UzV2Ls5ILEhVNTIoLinKz04tz0wpyVA1dlE1MsrMy0gtyiwBslSNXVWNndPyi1LTi/JL81Ig/IJEkEoQKze/DGRCBUSfAUiHkUElhGcK4bpBVOZk5iGpNEVVikeloQHZpsK0YlWLz1QgA+HFtMycHEgIIcujBwlQCBKcxq4A);strokeColor=#d6b656;spacingTop=-1;spacingBottom=-1;spacingLeft=-1;spacingRight=-1;points=[[0,0.5,0],[1,0.5,0],[0.5,0,0],[0.5,1,0]];labelBackgroundColor=none;rounded=1;html=1;whiteSpace=wrap;fontFamily=Calibri;" vertex="1" parent="1">
            <mxGeometry x="515.5" y="-527" width="150" height="64" as="geometry" />
          </mxCell>
        </UserObject>
        <mxCell id="kS2l8qhDNlfA9cPAIQIV-71" value="" style="edgeStyle=orthogonalEdgeStyle;rounded=0;orthogonalLoop=1;jettySize=auto;html=1;" edge="1" source="kS2l8qhDNlfA9cPAIQIV-72" target="kS2l8qhDNlfA9cPAIQIV-73" parent="1">
          <mxGeometry relative="1" as="geometry" />
        </mxCell>
        <mxCell id="kS2l8qhDNlfA9cPAIQIV-72" value="&lt;span style=&quot;font-family: Calibri; font-size: 12px;&quot;&gt;Delay 1ms&lt;/span&gt;" style="rounded=0;whiteSpace=wrap;html=1;fontSize=16;fillColor=#d5e8d4;strokeColor=#82b366;" vertex="1" parent="1">
          <mxGeometry x="539" y="-428" width="103.5" height="44" as="geometry" />
        </mxCell>
        <mxCell id="kS2l8qhDNlfA9cPAIQIV-91" value="TRUE" style="edgeStyle=orthogonalEdgeStyle;rounded=0;orthogonalLoop=1;jettySize=auto;html=1;" edge="1" parent="1" source="kS2l8qhDNlfA9cPAIQIV-73" target="kS2l8qhDNlfA9cPAIQIV-84">
          <mxGeometry relative="1" as="geometry" />
        </mxCell>
        <mxCell id="kS2l8qhDNlfA9cPAIQIV-96" style="edgeStyle=orthogonalEdgeStyle;rounded=0;orthogonalLoop=1;jettySize=auto;html=1;" edge="1" parent="1" source="kS2l8qhDNlfA9cPAIQIV-73" target="kS2l8qhDNlfA9cPAIQIV-92">
          <mxGeometry relative="1" as="geometry">
            <Array as="points">
              <mxPoint x="494" y="-330" />
            </Array>
          </mxGeometry>
        </mxCell>
        <UserObject label="if writing LOW on&lt;br&gt;on EN == DIO_OK" Function="EN_DIO_Error_T DIO_init(uint8_t pinNumber, EN_DIO_PORT_T portNumber, EN_DIO_DIRECTION_T direction);" tags="Flowchart" id="kS2l8qhDNlfA9cPAIQIV-73">
          <mxCell style="vsdxID=219;fillColor=#fff2cc;shape=stencil(UzV2Ls5ILEhVNTIoLinKz04tz0wpyVA1dlE1MsrMy0gtyiwBslSNXVWNndPyi1LTi/JL81Ig/IJEkEoQKze/DGRCBUSfAUiHkUElhGcK4bpBVOZk5iGpNEVVikeloQHZpsK0YlWLz1QgA+HFtMycHEgIIcujBwlQCBKcxq4A);strokeColor=#d6b656;spacingTop=-1;spacingBottom=-1;spacingLeft=-1;spacingRight=-1;points=[[0,0.5,0],[1,0.5,0],[0.5,0,0],[0.5,1,0]];labelBackgroundColor=none;rounded=1;html=1;whiteSpace=wrap;fontFamily=Calibri;" vertex="1" parent="1">
            <mxGeometry x="515.5" y="-362.5" width="150" height="64" as="geometry" />
          </mxCell>
        </UserObject>
        <mxCell id="kS2l8qhDNlfA9cPAIQIV-83" style="edgeStyle=orthogonalEdgeStyle;rounded=0;orthogonalLoop=1;jettySize=auto;html=1;" edge="1" source="kS2l8qhDNlfA9cPAIQIV-84" target="kS2l8qhDNlfA9cPAIQIV-86" parent="1">
          <mxGeometry relative="1" as="geometry" />
        </mxCell>
        <mxCell id="kS2l8qhDNlfA9cPAIQIV-84" value="&lt;span style=&quot;font-family: Calibri; font-size: 12px;&quot;&gt;write higer char nipple passed on LCD_DATA_PORT&lt;/span&gt;" style="rounded=0;whiteSpace=wrap;html=1;fontSize=16;fillColor=#d5e8d4;strokeColor=#82b366;" vertex="1" parent="1">
          <mxGeometry x="720" y="-352.5" width="145" height="44" as="geometry" />
        </mxCell>
        <mxCell id="kS2l8qhDNlfA9cPAIQIV-85" value="TRUE" style="edgeStyle=orthogonalEdgeStyle;rounded=0;orthogonalLoop=1;jettySize=auto;html=1;" edge="1" source="kS2l8qhDNlfA9cPAIQIV-86" target="kS2l8qhDNlfA9cPAIQIV-88" parent="1">
          <mxGeometry relative="1" as="geometry" />
        </mxCell>
        <mxCell id="kS2l8qhDNlfA9cPAIQIV-101" value="FALSE" style="edgeStyle=orthogonalEdgeStyle;rounded=0;orthogonalLoop=1;jettySize=auto;html=1;" edge="1" parent="1" source="kS2l8qhDNlfA9cPAIQIV-86" target="kS2l8qhDNlfA9cPAIQIV-99">
          <mxGeometry x="-0.6856" relative="1" as="geometry">
            <Array as="points">
              <mxPoint x="703" y="-416" />
              <mxPoint x="703" y="-665" />
            </Array>
            <mxPoint y="1" as="offset" />
          </mxGeometry>
        </mxCell>
        <UserObject label="if writing HIGH on&lt;br&gt;on EN == DIO_OK" Function="EN_DIO_Error_T DIO_init(uint8_t pinNumber, EN_DIO_PORT_T portNumber, EN_DIO_DIRECTION_T direction);" tags="Flowchart" id="kS2l8qhDNlfA9cPAIQIV-86">
          <mxCell style="vsdxID=219;fillColor=#fff2cc;shape=stencil(UzV2Ls5ILEhVNTIoLinKz04tz0wpyVA1dlE1MsrMy0gtyiwBslSNXVWNndPyi1LTi/JL81Ig/IJEkEoQKze/DGRCBUSfAUiHkUElhGcK4bpBVOZk5iGpNEVVikeloQHZpsK0YlWLz1QgA+HFtMycHEgIIcujBwlQCBKcxq4A);strokeColor=#d6b656;spacingTop=-1;spacingBottom=-1;spacingLeft=-1;spacingRight=-1;points=[[0,0.5,0],[1,0.5,0],[0.5,0,0],[0.5,1,0]];labelBackgroundColor=none;rounded=1;html=1;whiteSpace=wrap;fontFamily=Calibri;" vertex="1" parent="1">
            <mxGeometry x="717.5" y="-448" width="150" height="64" as="geometry" />
          </mxCell>
        </UserObject>
        <mxCell id="kS2l8qhDNlfA9cPAIQIV-87" value="" style="edgeStyle=orthogonalEdgeStyle;rounded=0;orthogonalLoop=1;jettySize=auto;html=1;" edge="1" source="kS2l8qhDNlfA9cPAIQIV-88" target="kS2l8qhDNlfA9cPAIQIV-89" parent="1">
          <mxGeometry relative="1" as="geometry" />
        </mxCell>
        <mxCell id="kS2l8qhDNlfA9cPAIQIV-88" value="&lt;span style=&quot;font-family: Calibri; font-size: 12px;&quot;&gt;Delay 1ms&lt;/span&gt;" style="rounded=0;whiteSpace=wrap;html=1;fontSize=16;fillColor=#d5e8d4;strokeColor=#82b366;" vertex="1" parent="1">
          <mxGeometry x="740.75" y="-522" width="103.5" height="44" as="geometry" />
        </mxCell>
        <mxCell id="kS2l8qhDNlfA9cPAIQIV-100" value="FALSE" style="edgeStyle=orthogonalEdgeStyle;rounded=0;orthogonalLoop=1;jettySize=auto;html=1;" edge="1" parent="1" source="kS2l8qhDNlfA9cPAIQIV-89" target="kS2l8qhDNlfA9cPAIQIV-99">
          <mxGeometry relative="1" as="geometry" />
        </mxCell>
        <mxCell id="kS2l8qhDNlfA9cPAIQIV-108" value="TRUE" style="edgeStyle=orthogonalEdgeStyle;rounded=0;orthogonalLoop=1;jettySize=auto;html=1;" edge="1" parent="1" source="kS2l8qhDNlfA9cPAIQIV-89" target="kS2l8qhDNlfA9cPAIQIV-107">
          <mxGeometry relative="1" as="geometry" />
        </mxCell>
        <UserObject label="if writing LOW on&lt;br&gt;on EN == DIO_OK" Function="EN_DIO_Error_T DIO_init(uint8_t pinNumber, EN_DIO_PORT_T portNumber, EN_DIO_DIRECTION_T direction);" tags="Flowchart" id="kS2l8qhDNlfA9cPAIQIV-89">
          <mxCell style="vsdxID=219;fillColor=#fff2cc;shape=stencil(UzV2Ls5ILEhVNTIoLinKz04tz0wpyVA1dlE1MsrMy0gtyiwBslSNXVWNndPyi1LTi/JL81Ig/IJEkEoQKze/DGRCBUSfAUiHkUElhGcK4bpBVOZk5iGpNEVVikeloQHZpsK0YlWLz1QgA+HFtMycHEgIIcujBwlQCBKcxq4A);strokeColor=#d6b656;spacingTop=-1;spacingBottom=-1;spacingLeft=-1;spacingRight=-1;points=[[0,0.5,0],[1,0.5,0],[0.5,0,0],[0.5,1,0]];labelBackgroundColor=none;rounded=1;html=1;whiteSpace=wrap;fontFamily=Calibri;" vertex="1" parent="1">
            <mxGeometry x="717.5" y="-607" width="150" height="64" as="geometry" />
          </mxCell>
        </UserObject>
        <UserObject label="&lt;div style=&quot;font-size: 1px&quot;&gt;&lt;font style=&quot;font-size: 11.29px; direction: ltr; letter-spacing: 0px; line-height: 120%; opacity: 1;&quot;&gt;LCD_NOK&lt;/font&gt;&lt;/div&gt;" Function="EN_DIO_Error_T DIO_init(uint8_t pinNumber, EN_DIO_PORT_T portNumber, EN_DIO_DIRECTION_T direction);" tags="Flowchart" id="kS2l8qhDNlfA9cPAIQIV-92">
          <mxCell style="verticalAlign=middle;align=center;overflow=width;vsdxID=52;fillColor=#f8cecc;shape=stencil(tVLREoIgEPwaHnEQxsl3s/9gEpSJwDko7e+DsEkze2l627vdu5uFRaxyHe8FosR5sCcxqMZ3iO0Rpcp0ApQPCLEasUpaEC3Yi2lS3fOojOhsr3HDmObyMtsVcYqS29Qh5FEfklwrM5OXeUa/yjkcAwfr7TDpiyTfXvjkMR+Vw2A998qaBac5tAKHU1hq3i4oNwjRr9ofvayt/+Rk+yX/4iWA159KpXWKxJx/z0Bopfyw+g4=);strokeColor=#b85450;spacingTop=-1;spacingBottom=-1;spacingLeft=-1;spacingRight=-1;points=[[0.5,1,0],[0.5,0,0],[0,0.5,0],[1,0.5,0]];labelBackgroundColor=none;rounded=1;html=1;whiteSpace=wrap;fontFamily=Calibri;" vertex="1" parent="1">
            <mxGeometry x="443" y="-270.5" width="101" height="38" as="geometry" />
          </mxCell>
        </UserObject>
        <mxCell id="kS2l8qhDNlfA9cPAIQIV-95" value="False" style="edgeStyle=orthogonalEdgeStyle;rounded=0;orthogonalLoop=1;jettySize=auto;html=1;" edge="1" parent="1" source="kS2l8qhDNlfA9cPAIQIV-65" target="kS2l8qhDNlfA9cPAIQIV-92">
          <mxGeometry relative="1" as="geometry">
            <Array as="points">
              <mxPoint x="494" y="-330" />
            </Array>
          </mxGeometry>
        </mxCell>
        <UserObject label="&lt;div style=&quot;font-size: 1px&quot;&gt;&lt;font style=&quot;font-size: 11.29px; direction: ltr; letter-spacing: 0px; line-height: 120%; opacity: 1;&quot;&gt;LCD_NOK&lt;/font&gt;&lt;/div&gt;" Function="EN_DIO_Error_T DIO_init(uint8_t pinNumber, EN_DIO_PORT_T portNumber, EN_DIO_DIRECTION_T direction);" tags="Flowchart" id="kS2l8qhDNlfA9cPAIQIV-99">
          <mxCell style="verticalAlign=middle;align=center;overflow=width;vsdxID=52;fillColor=#f8cecc;shape=stencil(tVLREoIgEPwaHnEQxsl3s/9gEpSJwDko7e+DsEkze2l627vdu5uFRaxyHe8FosR5sCcxqMZ3iO0Rpcp0ApQPCLEasUpaEC3Yi2lS3fOojOhsr3HDmObyMtsVcYqS29Qh5FEfklwrM5OXeUa/yjkcAwfr7TDpiyTfXvjkMR+Vw2A998qaBac5tAKHU1hq3i4oNwjRr9ofvayt/+Rk+yX/4iWA159KpXWKxJx/z0Bopfyw+g4=);strokeColor=#b85450;spacingTop=-1;spacingBottom=-1;spacingLeft=-1;spacingRight=-1;points=[[0.5,1,0],[0.5,0,0],[0,0.5,0],[1,0.5,0]];labelBackgroundColor=none;rounded=1;html=1;whiteSpace=wrap;fontFamily=Calibri;" vertex="1" parent="1">
            <mxGeometry x="741.75" y="-684" width="101" height="38" as="geometry" />
          </mxCell>
        </UserObject>
        <UserObject label="&lt;div style=&quot;font-size: 1px&quot;&gt;&lt;font style=&quot;font-size: 11.29px; direction: ltr; letter-spacing: 0px; line-height: 120%; opacity: 1;&quot;&gt;LCD_OK&lt;/font&gt;&lt;/div&gt;" Function="EN_DIO_Error_T DIO_init(uint8_t pinNumber, EN_DIO_PORT_T portNumber, EN_DIO_DIRECTION_T direction);" tags="Flowchart" id="kS2l8qhDNlfA9cPAIQIV-104">
          <mxCell style="verticalAlign=middle;align=center;overflow=width;vsdxID=52;fillColor=#d5e8d4;shape=stencil(tVLREoIgEPwaHnEQxsl3s/9gEpSJwDko7e+DsEkze2l627vdu5uFRaxyHe8FosR5sCcxqMZ3iO0Rpcp0ApQPCLEasUpaEC3Yi2lS3fOojOhsr3HDmObyMtsVcYqS29Qh5FEfklwrM5OXeUa/yjkcAwfr7TDpiyTfXvjkMR+Vw2A998qaBac5tAKHU1hq3i4oNwjRr9ofvayt/+Rk+yX/4iWA159KpXWKxJx/z0Bopfyw+g4=);strokeColor=#82b366;spacingTop=-1;spacingBottom=-1;spacingLeft=-1;spacingRight=-1;points=[[0.5,1,0],[0.5,0,0],[0,0.5,0],[1,0.5,0]];labelBackgroundColor=none;rounded=1;html=1;whiteSpace=wrap;fontFamily=Calibri;" vertex="1" parent="1">
            <mxGeometry x="218" y="-270.5" width="101" height="38" as="geometry" />
          </mxCell>
        </UserObject>
        <UserObject label="&lt;div style=&quot;font-size: 1px&quot;&gt;&lt;font style=&quot;font-size: 11.29px; direction: ltr; letter-spacing: 0px; line-height: 120%; opacity: 1;&quot;&gt;LCD_OK&lt;/font&gt;&lt;/div&gt;" Function="EN_DIO_Error_T DIO_init(uint8_t pinNumber, EN_DIO_PORT_T portNumber, EN_DIO_DIRECTION_T direction);" tags="Flowchart" id="kS2l8qhDNlfA9cPAIQIV-107">
          <mxCell style="verticalAlign=middle;align=center;overflow=width;vsdxID=52;fillColor=#d5e8d4;shape=stencil(tVLREoIgEPwaHnEQxsl3s/9gEpSJwDko7e+DsEkze2l627vdu5uFRaxyHe8FosR5sCcxqMZ3iO0Rpcp0ApQPCLEasUpaEC3Yi2lS3fOojOhsr3HDmObyMtsVcYqS29Qh5FEfklwrM5OXeUa/yjkcAwfr7TDpiyTfXvjkMR+Vw2A998qaBac5tAKHU1hq3i4oNwjRr9ofvayt/+Rk+yX/4iWA159KpXWKxJx/z0Bopfyw+g4=);strokeColor=#82b366;spacingTop=-1;spacingBottom=-1;spacingLeft=-1;spacingRight=-1;points=[[0.5,1,0],[0.5,0,0],[0,0.5,0],[1,0.5,0]];labelBackgroundColor=none;rounded=1;html=1;whiteSpace=wrap;fontFamily=Calibri;" vertex="1" parent="1">
            <mxGeometry x="915" y="-594" width="101" height="38" as="geometry" />
          </mxCell>
        </UserObject>
        <mxCell id="kS2l8qhDNlfA9cPAIQIV-109" value="" style="edgeStyle=orthogonalEdgeStyle;rounded=0;orthogonalLoop=1;jettySize=auto;html=1;" edge="1" source="kS2l8qhDNlfA9cPAIQIV-110" target="kS2l8qhDNlfA9cPAIQIV-113" parent="1">
          <mxGeometry relative="1" as="geometry" />
        </mxCell>
        <UserObject label="&lt;div style=&quot;&quot;&gt;&lt;span style=&quot;font-size: 11.29px;&quot;&gt;START&lt;/span&gt;&lt;/div&gt;" Function="EN_DIO_Error_T DIO_init(uint8_t pinNumber, EN_DIO_PORT_T portNumber, EN_DIO_DIRECTION_T direction);" tags="Flowchart" id="kS2l8qhDNlfA9cPAIQIV-110">
          <mxCell style="verticalAlign=middle;align=center;overflow=width;vsdxID=30;fillColor=#dae8fc;shape=stencil(tVLREoIgEPwaHnEQxsl3s/9gEpSJwDko7e+DsEkze2l627vdu5uFRaxyHe8FosR5sCcxqMZ3iO0Rpcp0ApQPCLEasUpaEC3Yi2lS3fOojOhsr3HDmObyMtsVcYqS29Qh5FEfklwrM5OXeUa/yjkcAwfr7TDpiyTfXvjkMR+Vw2A998qaBac5tAKHU1hq3i4oNwjRr9ofvayt/+Rk+yX/4iWA159KpXWKxJx/z0Bopfyw+g4=);strokeColor=#6c8ebf;spacingTop=-1;spacingBottom=-1;spacingLeft=-1;spacingRight=-1;points=[[0.5,1,0],[0.5,0,0],[0,0.5,0],[1,0.5,0]];labelBackgroundColor=none;rounded=1;html=1;whiteSpace=wrap;fontFamily=Calibri;" vertex="1" parent="1">
            <mxGeometry x="433" y="-88.5" width="101" height="38" as="geometry" />
          </mxCell>
        </UserObject>
        <mxCell id="kS2l8qhDNlfA9cPAIQIV-111" value="TRUE" style="edgeStyle=orthogonalEdgeStyle;rounded=0;orthogonalLoop=1;jettySize=auto;html=1;" edge="1" source="kS2l8qhDNlfA9cPAIQIV-113" target="kS2l8qhDNlfA9cPAIQIV-116" parent="1">
          <mxGeometry relative="1" as="geometry" />
        </mxCell>
        <mxCell id="kS2l8qhDNlfA9cPAIQIV-112" value="FALSE" style="edgeStyle=orthogonalEdgeStyle;rounded=0;orthogonalLoop=1;jettySize=auto;html=1;" edge="1" source="kS2l8qhDNlfA9cPAIQIV-113" target="kS2l8qhDNlfA9cPAIQIV-151" parent="1">
          <mxGeometry x="-0.7343" relative="1" as="geometry">
            <Array as="points">
              <mxPoint x="785" y="5.5" />
              <mxPoint x="785" y="105.5" />
            </Array>
            <mxPoint as="offset" />
          </mxGeometry>
        </mxCell>
        <UserObject label="if writing LOW on&lt;br&gt;on RS == DIO_OK" Function="EN_DIO_Error_T DIO_init(uint8_t pinNumber, EN_DIO_PORT_T portNumber, EN_DIO_DIRECTION_T direction);" tags="Flowchart" id="kS2l8qhDNlfA9cPAIQIV-113">
          <mxCell style="vsdxID=219;fillColor=#fff2cc;shape=stencil(UzV2Ls5ILEhVNTIoLinKz04tz0wpyVA1dlE1MsrMy0gtyiwBslSNXVWNndPyi1LTi/JL81Ig/IJEkEoQKze/DGRCBUSfAUiHkUElhGcK4bpBVOZk5iGpNEVVikeloQHZpsK0YlWLz1QgA+HFtMycHEgIIcujBwlQCBKcxq4A);strokeColor=#d6b656;spacingTop=-1;spacingBottom=-1;spacingLeft=-1;spacingRight=-1;points=[[0,0.5,0],[1,0.5,0],[0.5,0,0],[0.5,1,0]];labelBackgroundColor=none;rounded=1;html=1;whiteSpace=wrap;fontFamily=Calibri;" vertex="1" parent="1">
            <mxGeometry x="408.5" y="-26.5" width="150" height="64" as="geometry" />
          </mxCell>
        </UserObject>
        <mxCell id="kS2l8qhDNlfA9cPAIQIV-114" value="FALSE" style="edgeStyle=orthogonalEdgeStyle;rounded=0;orthogonalLoop=1;jettySize=auto;html=1;" edge="1" source="kS2l8qhDNlfA9cPAIQIV-116" target="kS2l8qhDNlfA9cPAIQIV-119" parent="1">
          <mxGeometry relative="1" as="geometry" />
        </mxCell>
        <mxCell id="kS2l8qhDNlfA9cPAIQIV-115" value="TRUE" style="edgeStyle=orthogonalEdgeStyle;rounded=0;orthogonalLoop=1;jettySize=auto;html=1;" edge="1" source="kS2l8qhDNlfA9cPAIQIV-116" target="kS2l8qhDNlfA9cPAIQIV-121" parent="1">
          <mxGeometry relative="1" as="geometry" />
        </mxCell>
        <UserObject label="if .lcdMode ==&amp;nbsp;&lt;br&gt;LCD_8_BIT_MODE" Function="EN_DIO_Error_T DIO_init(uint8_t pinNumber, EN_DIO_PORT_T portNumber, EN_DIO_DIRECTION_T direction);" tags="Flowchart" id="kS2l8qhDNlfA9cPAIQIV-116">
          <mxCell style="vsdxID=219;fillColor=#fff2cc;shape=stencil(UzV2Ls5ILEhVNTIoLinKz04tz0wpyVA1dlE1MsrMy0gtyiwBslSNXVWNndPyi1LTi/JL81Ig/IJEkEoQKze/DGRCBUSfAUiHkUElhGcK4bpBVOZk5iGpNEVVikeloQHZpsK0YlWLz1QgA+HFtMycHEgIIcujBwlQCBKcxq4A);strokeColor=#d6b656;spacingTop=-1;spacingBottom=-1;spacingLeft=-1;spacingRight=-1;points=[[0,0.5,0],[1,0.5,0],[0.5,0,0],[0.5,1,0]];labelBackgroundColor=none;rounded=1;html=1;whiteSpace=wrap;fontFamily=Calibri;" vertex="1" parent="1">
            <mxGeometry x="419" y="62.5" width="129" height="86" as="geometry" />
          </mxCell>
        </UserObject>
        <mxCell id="kS2l8qhDNlfA9cPAIQIV-117" value="TRUE" style="edgeStyle=orthogonalEdgeStyle;rounded=0;orthogonalLoop=1;jettySize=auto;html=1;" edge="1" source="kS2l8qhDNlfA9cPAIQIV-119" target="kS2l8qhDNlfA9cPAIQIV-130" parent="1">
          <mxGeometry relative="1" as="geometry" />
        </mxCell>
        <mxCell id="kS2l8qhDNlfA9cPAIQIV-118" value="FALSE" style="edgeStyle=orthogonalEdgeStyle;rounded=0;orthogonalLoop=1;jettySize=auto;html=1;" edge="1" source="kS2l8qhDNlfA9cPAIQIV-119" target="kS2l8qhDNlfA9cPAIQIV-151" parent="1">
          <mxGeometry x="-0.5389" y="-2" relative="1" as="geometry">
            <mxPoint as="offset" />
          </mxGeometry>
        </mxCell>
        <UserObject label="if .lcdMode ==&amp;nbsp;&lt;br&gt;LCD_4_BIT_MODE" Function="EN_DIO_Error_T DIO_init(uint8_t pinNumber, EN_DIO_PORT_T portNumber, EN_DIO_DIRECTION_T direction);" tags="Flowchart" id="kS2l8qhDNlfA9cPAIQIV-119">
          <mxCell style="vsdxID=219;fillColor=#fff2cc;shape=stencil(UzV2Ls5ILEhVNTIoLinKz04tz0wpyVA1dlE1MsrMy0gtyiwBslSNXVWNndPyi1LTi/JL81Ig/IJEkEoQKze/DGRCBUSfAUiHkUElhGcK4bpBVOZk5iGpNEVVikeloQHZpsK0YlWLz1QgA+HFtMycHEgIIcujBwlQCBKcxq4A);strokeColor=#d6b656;spacingTop=-1;spacingBottom=-1;spacingLeft=-1;spacingRight=-1;points=[[0,0.5,0],[1,0.5,0],[0.5,0,0],[0.5,1,0]];labelBackgroundColor=none;rounded=1;html=1;whiteSpace=wrap;fontFamily=Calibri;" vertex="1" parent="1">
            <mxGeometry x="608" y="62.5" width="129" height="86" as="geometry" />
          </mxCell>
        </UserObject>
        <mxCell id="kS2l8qhDNlfA9cPAIQIV-120" value="" style="edgeStyle=orthogonalEdgeStyle;rounded=0;orthogonalLoop=1;jettySize=auto;html=1;" edge="1" source="kS2l8qhDNlfA9cPAIQIV-121" target="kS2l8qhDNlfA9cPAIQIV-124" parent="1">
          <mxGeometry relative="1" as="geometry" />
        </mxCell>
        <mxCell id="kS2l8qhDNlfA9cPAIQIV-121" value="&lt;span style=&quot;font-family: Calibri; font-size: 12px;&quot;&gt;write char passed on LCD_DATA_PORT&lt;/span&gt;" style="rounded=0;whiteSpace=wrap;html=1;fontSize=16;fillColor=#d5e8d4;strokeColor=#82b366;" vertex="1" parent="1">
          <mxGeometry x="431.75" y="173.5" width="103.5" height="44" as="geometry" />
        </mxCell>
        <mxCell id="kS2l8qhDNlfA9cPAIQIV-122" value="TRUE" style="edgeStyle=orthogonalEdgeStyle;rounded=0;orthogonalLoop=1;jettySize=auto;html=1;" edge="1" source="kS2l8qhDNlfA9cPAIQIV-124" target="kS2l8qhDNlfA9cPAIQIV-126" parent="1">
          <mxGeometry relative="1" as="geometry" />
        </mxCell>
        <mxCell id="kS2l8qhDNlfA9cPAIQIV-123" style="edgeStyle=orthogonalEdgeStyle;rounded=0;orthogonalLoop=1;jettySize=auto;html=1;" edge="1" source="kS2l8qhDNlfA9cPAIQIV-124" target="kS2l8qhDNlfA9cPAIQIV-149" parent="1">
          <mxGeometry relative="1" as="geometry">
            <Array as="points">
              <mxPoint x="576" y="275.5" />
            </Array>
          </mxGeometry>
        </mxCell>
        <UserObject label="if writing HIGH on&lt;br&gt;on EN == DIO_OK" Function="EN_DIO_Error_T DIO_init(uint8_t pinNumber, EN_DIO_PORT_T portNumber, EN_DIO_DIRECTION_T direction);" tags="Flowchart" id="kS2l8qhDNlfA9cPAIQIV-124">
          <mxCell style="vsdxID=219;fillColor=#fff2cc;shape=stencil(UzV2Ls5ILEhVNTIoLinKz04tz0wpyVA1dlE1MsrMy0gtyiwBslSNXVWNndPyi1LTi/JL81Ig/IJEkEoQKze/DGRCBUSfAUiHkUElhGcK4bpBVOZk5iGpNEVVikeloQHZpsK0YlWLz1QgA+HFtMycHEgIIcujBwlQCBKcxq4A);strokeColor=#d6b656;spacingTop=-1;spacingBottom=-1;spacingLeft=-1;spacingRight=-1;points=[[0,0.5,0],[1,0.5,0],[0.5,0,0],[0.5,1,0]];labelBackgroundColor=none;rounded=1;html=1;whiteSpace=wrap;fontFamily=Calibri;" vertex="1" parent="1">
            <mxGeometry x="408.5" y="243.5" width="150" height="64" as="geometry" />
          </mxCell>
        </UserObject>
        <mxCell id="kS2l8qhDNlfA9cPAIQIV-125" value="" style="edgeStyle=orthogonalEdgeStyle;rounded=0;orthogonalLoop=1;jettySize=auto;html=1;" edge="1" source="kS2l8qhDNlfA9cPAIQIV-126" target="kS2l8qhDNlfA9cPAIQIV-128" parent="1">
          <mxGeometry relative="1" as="geometry" />
        </mxCell>
        <mxCell id="kS2l8qhDNlfA9cPAIQIV-126" value="&lt;span style=&quot;font-family: Calibri; font-size: 12px;&quot;&gt;Delay 1ms&lt;/span&gt;" style="rounded=0;whiteSpace=wrap;html=1;fontSize=16;fillColor=#d5e8d4;strokeColor=#82b366;" vertex="1" parent="1">
          <mxGeometry x="432" y="342.5" width="103.5" height="44" as="geometry" />
        </mxCell>
        <mxCell id="kS2l8qhDNlfA9cPAIQIV-127" value="TRUE" style="edgeStyle=orthogonalEdgeStyle;rounded=0;orthogonalLoop=1;jettySize=auto;html=1;" edge="1" source="kS2l8qhDNlfA9cPAIQIV-128" target="kS2l8qhDNlfA9cPAIQIV-152" parent="1">
          <mxGeometry relative="1" as="geometry" />
        </mxCell>
        <UserObject label="if writing LOW on&lt;br&gt;on EN == DIO_OK" Function="EN_DIO_Error_T DIO_init(uint8_t pinNumber, EN_DIO_PORT_T portNumber, EN_DIO_DIRECTION_T direction);" tags="Flowchart" id="kS2l8qhDNlfA9cPAIQIV-128">
          <mxCell style="vsdxID=219;fillColor=#fff2cc;shape=stencil(UzV2Ls5ILEhVNTIoLinKz04tz0wpyVA1dlE1MsrMy0gtyiwBslSNXVWNndPyi1LTi/JL81Ig/IJEkEoQKze/DGRCBUSfAUiHkUElhGcK4bpBVOZk5iGpNEVVikeloQHZpsK0YlWLz1QgA+HFtMycHEgIIcujBwlQCBKcxq4A);strokeColor=#d6b656;spacingTop=-1;spacingBottom=-1;spacingLeft=-1;spacingRight=-1;points=[[0,0.5,0],[1,0.5,0],[0.5,0,0],[0.5,1,0]];labelBackgroundColor=none;rounded=1;html=1;whiteSpace=wrap;fontFamily=Calibri;" vertex="1" parent="1">
            <mxGeometry x="408.5" y="408" width="150" height="64" as="geometry" />
          </mxCell>
        </UserObject>
        <mxCell id="kS2l8qhDNlfA9cPAIQIV-129" style="edgeStyle=orthogonalEdgeStyle;rounded=0;orthogonalLoop=1;jettySize=auto;html=1;" edge="1" source="kS2l8qhDNlfA9cPAIQIV-130" target="kS2l8qhDNlfA9cPAIQIV-133" parent="1">
          <mxGeometry relative="1" as="geometry" />
        </mxCell>
        <mxCell id="kS2l8qhDNlfA9cPAIQIV-130" value="&lt;span style=&quot;font-family: Calibri; font-size: 12px;&quot;&gt;write higer char nipple passed on LCD_DATA_PORT&lt;/span&gt;" style="rounded=0;whiteSpace=wrap;html=1;fontSize=16;fillColor=#d5e8d4;strokeColor=#82b366;" vertex="1" parent="1">
          <mxGeometry x="600" y="173.5" width="145" height="44" as="geometry" />
        </mxCell>
        <mxCell id="kS2l8qhDNlfA9cPAIQIV-131" value="TRUE" style="edgeStyle=orthogonalEdgeStyle;rounded=0;orthogonalLoop=1;jettySize=auto;html=1;" edge="1" source="kS2l8qhDNlfA9cPAIQIV-133" target="kS2l8qhDNlfA9cPAIQIV-135" parent="1">
          <mxGeometry relative="1" as="geometry" />
        </mxCell>
        <mxCell id="kS2l8qhDNlfA9cPAIQIV-132" value="False" style="edgeStyle=orthogonalEdgeStyle;rounded=0;orthogonalLoop=1;jettySize=auto;html=1;" edge="1" source="kS2l8qhDNlfA9cPAIQIV-133" target="kS2l8qhDNlfA9cPAIQIV-149" parent="1">
          <mxGeometry x="-0.8252" y="-14" relative="1" as="geometry">
            <Array as="points">
              <mxPoint x="576" y="275.5" />
            </Array>
            <mxPoint x="14" y="-14" as="offset" />
          </mxGeometry>
        </mxCell>
        <UserObject label="if writing HIGH on&lt;br&gt;on EN == DIO_OK" Function="EN_DIO_Error_T DIO_init(uint8_t pinNumber, EN_DIO_PORT_T portNumber, EN_DIO_DIRECTION_T direction);" tags="Flowchart" id="kS2l8qhDNlfA9cPAIQIV-133">
          <mxCell style="vsdxID=219;fillColor=#fff2cc;shape=stencil(UzV2Ls5ILEhVNTIoLinKz04tz0wpyVA1dlE1MsrMy0gtyiwBslSNXVWNndPyi1LTi/JL81Ig/IJEkEoQKze/DGRCBUSfAUiHkUElhGcK4bpBVOZk5iGpNEVVikeloQHZpsK0YlWLz1QgA+HFtMycHEgIIcujBwlQCBKcxq4A);strokeColor=#d6b656;spacingTop=-1;spacingBottom=-1;spacingLeft=-1;spacingRight=-1;points=[[0,0.5,0],[1,0.5,0],[0.5,0,0],[0.5,1,0]];labelBackgroundColor=none;rounded=1;html=1;whiteSpace=wrap;fontFamily=Calibri;" vertex="1" parent="1">
            <mxGeometry x="597.5" y="243.5" width="150" height="64" as="geometry" />
          </mxCell>
        </UserObject>
        <mxCell id="kS2l8qhDNlfA9cPAIQIV-134" value="" style="edgeStyle=orthogonalEdgeStyle;rounded=0;orthogonalLoop=1;jettySize=auto;html=1;" edge="1" source="kS2l8qhDNlfA9cPAIQIV-135" target="kS2l8qhDNlfA9cPAIQIV-138" parent="1">
          <mxGeometry relative="1" as="geometry" />
        </mxCell>
        <mxCell id="kS2l8qhDNlfA9cPAIQIV-135" value="&lt;span style=&quot;font-family: Calibri; font-size: 12px;&quot;&gt;Delay 1ms&lt;/span&gt;" style="rounded=0;whiteSpace=wrap;html=1;fontSize=16;fillColor=#d5e8d4;strokeColor=#82b366;" vertex="1" parent="1">
          <mxGeometry x="621" y="342.5" width="103.5" height="44" as="geometry" />
        </mxCell>
        <mxCell id="kS2l8qhDNlfA9cPAIQIV-136" value="TRUE" style="edgeStyle=orthogonalEdgeStyle;rounded=0;orthogonalLoop=1;jettySize=auto;html=1;" edge="1" source="kS2l8qhDNlfA9cPAIQIV-138" target="kS2l8qhDNlfA9cPAIQIV-140" parent="1">
          <mxGeometry relative="1" as="geometry" />
        </mxCell>
        <mxCell id="kS2l8qhDNlfA9cPAIQIV-137" style="edgeStyle=orthogonalEdgeStyle;rounded=0;orthogonalLoop=1;jettySize=auto;html=1;" edge="1" source="kS2l8qhDNlfA9cPAIQIV-138" target="kS2l8qhDNlfA9cPAIQIV-149" parent="1">
          <mxGeometry relative="1" as="geometry">
            <Array as="points">
              <mxPoint x="576" y="440.5" />
            </Array>
          </mxGeometry>
        </mxCell>
        <UserObject label="if writing LOW on&lt;br&gt;on EN == DIO_OK" Function="EN_DIO_Error_T DIO_init(uint8_t pinNumber, EN_DIO_PORT_T portNumber, EN_DIO_DIRECTION_T direction);" tags="Flowchart" id="kS2l8qhDNlfA9cPAIQIV-138">
          <mxCell style="vsdxID=219;fillColor=#fff2cc;shape=stencil(UzV2Ls5ILEhVNTIoLinKz04tz0wpyVA1dlE1MsrMy0gtyiwBslSNXVWNndPyi1LTi/JL81Ig/IJEkEoQKze/DGRCBUSfAUiHkUElhGcK4bpBVOZk5iGpNEVVikeloQHZpsK0YlWLz1QgA+HFtMycHEgIIcujBwlQCBKcxq4A);strokeColor=#d6b656;spacingTop=-1;spacingBottom=-1;spacingLeft=-1;spacingRight=-1;points=[[0,0.5,0],[1,0.5,0],[0.5,0,0],[0.5,1,0]];labelBackgroundColor=none;rounded=1;html=1;whiteSpace=wrap;fontFamily=Calibri;" vertex="1" parent="1">
            <mxGeometry x="597.5" y="408" width="150" height="64" as="geometry" />
          </mxCell>
        </UserObject>
        <mxCell id="kS2l8qhDNlfA9cPAIQIV-139" style="edgeStyle=orthogonalEdgeStyle;rounded=0;orthogonalLoop=1;jettySize=auto;html=1;" edge="1" source="kS2l8qhDNlfA9cPAIQIV-140" target="kS2l8qhDNlfA9cPAIQIV-143" parent="1">
          <mxGeometry relative="1" as="geometry" />
        </mxCell>
        <mxCell id="kS2l8qhDNlfA9cPAIQIV-140" value="&lt;span style=&quot;font-family: Calibri; font-size: 12px;&quot;&gt;write higer char nipple passed on LCD_DATA_PORT&lt;/span&gt;" style="rounded=0;whiteSpace=wrap;html=1;fontSize=16;fillColor=#d5e8d4;strokeColor=#82b366;" vertex="1" parent="1">
          <mxGeometry x="802" y="418" width="145" height="44" as="geometry" />
        </mxCell>
        <mxCell id="kS2l8qhDNlfA9cPAIQIV-141" value="TRUE" style="edgeStyle=orthogonalEdgeStyle;rounded=0;orthogonalLoop=1;jettySize=auto;html=1;" edge="1" source="kS2l8qhDNlfA9cPAIQIV-143" target="kS2l8qhDNlfA9cPAIQIV-145" parent="1">
          <mxGeometry relative="1" as="geometry" />
        </mxCell>
        <mxCell id="kS2l8qhDNlfA9cPAIQIV-142" value="FALSE" style="edgeStyle=orthogonalEdgeStyle;rounded=0;orthogonalLoop=1;jettySize=auto;html=1;" edge="1" source="kS2l8qhDNlfA9cPAIQIV-143" target="kS2l8qhDNlfA9cPAIQIV-151" parent="1">
          <mxGeometry x="-0.6856" relative="1" as="geometry">
            <Array as="points">
              <mxPoint x="785" y="354.5" />
              <mxPoint x="785" y="105.5" />
            </Array>
            <mxPoint y="1" as="offset" />
          </mxGeometry>
        </mxCell>
        <UserObject label="if writing HIGH on&lt;br&gt;on EN == DIO_OK" Function="EN_DIO_Error_T DIO_init(uint8_t pinNumber, EN_DIO_PORT_T portNumber, EN_DIO_DIRECTION_T direction);" tags="Flowchart" id="kS2l8qhDNlfA9cPAIQIV-143">
          <mxCell style="vsdxID=219;fillColor=#fff2cc;shape=stencil(UzV2Ls5ILEhVNTIoLinKz04tz0wpyVA1dlE1MsrMy0gtyiwBslSNXVWNndPyi1LTi/JL81Ig/IJEkEoQKze/DGRCBUSfAUiHkUElhGcK4bpBVOZk5iGpNEVVikeloQHZpsK0YlWLz1QgA+HFtMycHEgIIcujBwlQCBKcxq4A);strokeColor=#d6b656;spacingTop=-1;spacingBottom=-1;spacingLeft=-1;spacingRight=-1;points=[[0,0.5,0],[1,0.5,0],[0.5,0,0],[0.5,1,0]];labelBackgroundColor=none;rounded=1;html=1;whiteSpace=wrap;fontFamily=Calibri;" vertex="1" parent="1">
            <mxGeometry x="799.5" y="322.5" width="150" height="64" as="geometry" />
          </mxCell>
        </UserObject>
        <mxCell id="kS2l8qhDNlfA9cPAIQIV-144" value="" style="edgeStyle=orthogonalEdgeStyle;rounded=0;orthogonalLoop=1;jettySize=auto;html=1;" edge="1" source="kS2l8qhDNlfA9cPAIQIV-145" target="kS2l8qhDNlfA9cPAIQIV-148" parent="1">
          <mxGeometry relative="1" as="geometry" />
        </mxCell>
        <mxCell id="kS2l8qhDNlfA9cPAIQIV-145" value="&lt;span style=&quot;font-family: Calibri; font-size: 12px;&quot;&gt;Delay 1ms&lt;/span&gt;" style="rounded=0;whiteSpace=wrap;html=1;fontSize=16;fillColor=#d5e8d4;strokeColor=#82b366;" vertex="1" parent="1">
          <mxGeometry x="822.75" y="248.5" width="103.5" height="44" as="geometry" />
        </mxCell>
        <mxCell id="kS2l8qhDNlfA9cPAIQIV-146" value="FALSE" style="edgeStyle=orthogonalEdgeStyle;rounded=0;orthogonalLoop=1;jettySize=auto;html=1;" edge="1" source="kS2l8qhDNlfA9cPAIQIV-148" target="kS2l8qhDNlfA9cPAIQIV-151" parent="1">
          <mxGeometry relative="1" as="geometry" />
        </mxCell>
        <mxCell id="kS2l8qhDNlfA9cPAIQIV-147" value="TRUE" style="edgeStyle=orthogonalEdgeStyle;rounded=0;orthogonalLoop=1;jettySize=auto;html=1;" edge="1" source="kS2l8qhDNlfA9cPAIQIV-148" target="kS2l8qhDNlfA9cPAIQIV-153" parent="1">
          <mxGeometry relative="1" as="geometry" />
        </mxCell>
        <UserObject label="if writing LOW on&lt;br&gt;on EN == DIO_OK" Function="EN_DIO_Error_T DIO_init(uint8_t pinNumber, EN_DIO_PORT_T portNumber, EN_DIO_DIRECTION_T direction);" tags="Flowchart" id="kS2l8qhDNlfA9cPAIQIV-148">
          <mxCell style="vsdxID=219;fillColor=#fff2cc;shape=stencil(UzV2Ls5ILEhVNTIoLinKz04tz0wpyVA1dlE1MsrMy0gtyiwBslSNXVWNndPyi1LTi/JL81Ig/IJEkEoQKze/DGRCBUSfAUiHkUElhGcK4bpBVOZk5iGpNEVVikeloQHZpsK0YlWLz1QgA+HFtMycHEgIIcujBwlQCBKcxq4A);strokeColor=#d6b656;spacingTop=-1;spacingBottom=-1;spacingLeft=-1;spacingRight=-1;points=[[0,0.5,0],[1,0.5,0],[0.5,0,0],[0.5,1,0]];labelBackgroundColor=none;rounded=1;html=1;whiteSpace=wrap;fontFamily=Calibri;" vertex="1" parent="1">
            <mxGeometry x="799.5" y="163.5" width="150" height="64" as="geometry" />
          </mxCell>
        </UserObject>
        <UserObject label="&lt;div style=&quot;font-size: 1px&quot;&gt;&lt;font style=&quot;font-size: 11.29px; direction: ltr; letter-spacing: 0px; line-height: 120%; opacity: 1;&quot;&gt;LCD_NOK&lt;/font&gt;&lt;/div&gt;" Function="EN_DIO_Error_T DIO_init(uint8_t pinNumber, EN_DIO_PORT_T portNumber, EN_DIO_DIRECTION_T direction);" tags="Flowchart" id="kS2l8qhDNlfA9cPAIQIV-149">
          <mxCell style="verticalAlign=middle;align=center;overflow=width;vsdxID=52;fillColor=#f8cecc;shape=stencil(tVLREoIgEPwaHnEQxsl3s/9gEpSJwDko7e+DsEkze2l627vdu5uFRaxyHe8FosR5sCcxqMZ3iO0Rpcp0ApQPCLEasUpaEC3Yi2lS3fOojOhsr3HDmObyMtsVcYqS29Qh5FEfklwrM5OXeUa/yjkcAwfr7TDpiyTfXvjkMR+Vw2A998qaBac5tAKHU1hq3i4oNwjRr9ofvayt/+Rk+yX/4iWA159KpXWKxJx/z0Bopfyw+g4=);strokeColor=#b85450;spacingTop=-1;spacingBottom=-1;spacingLeft=-1;spacingRight=-1;points=[[0.5,1,0],[0.5,0,0],[0,0.5,0],[1,0.5,0]];labelBackgroundColor=none;rounded=1;html=1;whiteSpace=wrap;fontFamily=Calibri;" vertex="1" parent="1">
            <mxGeometry x="525" y="500" width="101" height="38" as="geometry" />
          </mxCell>
        </UserObject>
        <mxCell id="kS2l8qhDNlfA9cPAIQIV-150" value="False" style="edgeStyle=orthogonalEdgeStyle;rounded=0;orthogonalLoop=1;jettySize=auto;html=1;" edge="1" source="kS2l8qhDNlfA9cPAIQIV-128" target="kS2l8qhDNlfA9cPAIQIV-149" parent="1">
          <mxGeometry relative="1" as="geometry">
            <Array as="points">
              <mxPoint x="576" y="440.5" />
            </Array>
          </mxGeometry>
        </mxCell>
        <UserObject label="&lt;div style=&quot;font-size: 1px&quot;&gt;&lt;font style=&quot;font-size: 11.29px; direction: ltr; letter-spacing: 0px; line-height: 120%; opacity: 1;&quot;&gt;LCD_NOK&lt;/font&gt;&lt;/div&gt;" Function="EN_DIO_Error_T DIO_init(uint8_t pinNumber, EN_DIO_PORT_T portNumber, EN_DIO_DIRECTION_T direction);" tags="Flowchart" id="kS2l8qhDNlfA9cPAIQIV-151">
          <mxCell style="verticalAlign=middle;align=center;overflow=width;vsdxID=52;fillColor=#f8cecc;shape=stencil(tVLREoIgEPwaHnEQxsl3s/9gEpSJwDko7e+DsEkze2l627vdu5uFRaxyHe8FosR5sCcxqMZ3iO0Rpcp0ApQPCLEasUpaEC3Yi2lS3fOojOhsr3HDmObyMtsVcYqS29Qh5FEfklwrM5OXeUa/yjkcAwfr7TDpiyTfXvjkMR+Vw2A998qaBac5tAKHU1hq3i4oNwjRr9ofvayt/+Rk+yX/4iWA159KpXWKxJx/z0Bopfyw+g4=);strokeColor=#b85450;spacingTop=-1;spacingBottom=-1;spacingLeft=-1;spacingRight=-1;points=[[0.5,1,0],[0.5,0,0],[0,0.5,0],[1,0.5,0]];labelBackgroundColor=none;rounded=1;html=1;whiteSpace=wrap;fontFamily=Calibri;" vertex="1" parent="1">
            <mxGeometry x="823.75" y="86.5" width="101" height="38" as="geometry" />
          </mxCell>
        </UserObject>
        <UserObject label="&lt;div style=&quot;font-size: 1px&quot;&gt;&lt;font style=&quot;font-size: 11.29px; direction: ltr; letter-spacing: 0px; line-height: 120%; opacity: 1;&quot;&gt;LCD_OK&lt;/font&gt;&lt;/div&gt;" Function="EN_DIO_Error_T DIO_init(uint8_t pinNumber, EN_DIO_PORT_T portNumber, EN_DIO_DIRECTION_T direction);" tags="Flowchart" id="kS2l8qhDNlfA9cPAIQIV-152">
          <mxCell style="verticalAlign=middle;align=center;overflow=width;vsdxID=52;fillColor=#d5e8d4;shape=stencil(tVLREoIgEPwaHnEQxsl3s/9gEpSJwDko7e+DsEkze2l627vdu5uFRaxyHe8FosR5sCcxqMZ3iO0Rpcp0ApQPCLEasUpaEC3Yi2lS3fOojOhsr3HDmObyMtsVcYqS29Qh5FEfklwrM5OXeUa/yjkcAwfr7TDpiyTfXvjkMR+Vw2A998qaBac5tAKHU1hq3i4oNwjRr9ofvayt/+Rk+yX/4iWA159KpXWKxJx/z0Bopfyw+g4=);strokeColor=#82b366;spacingTop=-1;spacingBottom=-1;spacingLeft=-1;spacingRight=-1;points=[[0.5,1,0],[0.5,0,0],[0,0.5,0],[1,0.5,0]];labelBackgroundColor=none;rounded=1;html=1;whiteSpace=wrap;fontFamily=Calibri;" vertex="1" parent="1">
            <mxGeometry x="300" y="500" width="101" height="38" as="geometry" />
          </mxCell>
        </UserObject>
        <UserObject label="&lt;div style=&quot;font-size: 1px&quot;&gt;&lt;font style=&quot;font-size: 11.29px; direction: ltr; letter-spacing: 0px; line-height: 120%; opacity: 1;&quot;&gt;LCD_OK&lt;/font&gt;&lt;/div&gt;" Function="EN_DIO_Error_T DIO_init(uint8_t pinNumber, EN_DIO_PORT_T portNumber, EN_DIO_DIRECTION_T direction);" tags="Flowchart" id="kS2l8qhDNlfA9cPAIQIV-153">
          <mxCell style="verticalAlign=middle;align=center;overflow=width;vsdxID=52;fillColor=#d5e8d4;shape=stencil(tVLREoIgEPwaHnEQxsl3s/9gEpSJwDko7e+DsEkze2l627vdu5uFRaxyHe8FosR5sCcxqMZ3iO0Rpcp0ApQPCLEasUpaEC3Yi2lS3fOojOhsr3HDmObyMtsVcYqS29Qh5FEfklwrM5OXeUa/yjkcAwfr7TDpiyTfXvjkMR+Vw2A998qaBac5tAKHU1hq3i4oNwjRr9ofvayt/+Rk+yX/4iWA159KpXWKxJx/z0Bopfyw+g4=);strokeColor=#82b366;spacingTop=-1;spacingBottom=-1;spacingLeft=-1;spacingRight=-1;points=[[0.5,1,0],[0.5,0,0],[0,0.5,0],[1,0.5,0]];labelBackgroundColor=none;rounded=1;html=1;whiteSpace=wrap;fontFamily=Calibri;" vertex="1" parent="1">
            <mxGeometry x="997" y="176.5" width="101" height="38" as="geometry" />
          </mxCell>
        </UserObject>
        <mxCell id="kS2l8qhDNlfA9cPAIQIV-156" value="" style="edgeStyle=orthogonalEdgeStyle;rounded=0;orthogonalLoop=1;jettySize=auto;html=1;" edge="1" parent="1" source="kS2l8qhDNlfA9cPAIQIV-154" target="kS2l8qhDNlfA9cPAIQIV-155">
          <mxGeometry relative="1" as="geometry" />
        </mxCell>
        <UserObject label="&lt;div style=&quot;&quot;&gt;&lt;span style=&quot;font-size: 11.29px;&quot;&gt;START&lt;/span&gt;&lt;/div&gt;" Function="EN_DIO_Error_T DIO_init(uint8_t pinNumber, EN_DIO_PORT_T portNumber, EN_DIO_DIRECTION_T direction);" tags="Flowchart" id="kS2l8qhDNlfA9cPAIQIV-154">
          <mxCell style="verticalAlign=middle;align=center;overflow=width;vsdxID=30;fillColor=#dae8fc;shape=stencil(tVLREoIgEPwaHnEQxsl3s/9gEpSJwDko7e+DsEkze2l627vdu5uFRaxyHe8FosR5sCcxqMZ3iO0Rpcp0ApQPCLEasUpaEC3Yi2lS3fOojOhsr3HDmObyMtsVcYqS29Qh5FEfklwrM5OXeUa/yjkcAwfr7TDpiyTfXvjkMR+Vw2A998qaBac5tAKHU1hq3i4oNwjRr9ofvayt/+Rk+yX/4iWA159KpXWKxJx/z0Bopfyw+g4=);strokeColor=#6c8ebf;spacingTop=-1;spacingBottom=-1;spacingLeft=-1;spacingRight=-1;points=[[0.5,1,0],[0.5,0,0],[0,0.5,0],[1,0.5,0]];labelBackgroundColor=none;rounded=1;html=1;whiteSpace=wrap;fontFamily=Calibri;" vertex="1" parent="1">
            <mxGeometry x="1202.12" y="-864" width="101" height="38" as="geometry" />
          </mxCell>
        </UserObject>
        <mxCell id="kS2l8qhDNlfA9cPAIQIV-158" value="" style="edgeStyle=orthogonalEdgeStyle;rounded=0;orthogonalLoop=1;jettySize=auto;html=1;" edge="1" parent="1" source="kS2l8qhDNlfA9cPAIQIV-155" target="kS2l8qhDNlfA9cPAIQIV-157">
          <mxGeometry relative="1" as="geometry" />
        </mxCell>
        <mxCell id="kS2l8qhDNlfA9cPAIQIV-155" value="&lt;font face=&quot;Calibri&quot;&gt;&lt;span style=&quot;font-size: 12px;&quot;&gt;calculate location desired&lt;/span&gt;&lt;/font&gt;" style="rounded=0;whiteSpace=wrap;html=1;fontSize=16;fillColor=#d5e8d4;strokeColor=#82b366;" vertex="1" parent="1">
          <mxGeometry x="1187" y="-797" width="131.25" height="44" as="geometry" />
        </mxCell>
        <mxCell id="kS2l8qhDNlfA9cPAIQIV-160" value="TRUE" style="edgeStyle=orthogonalEdgeStyle;rounded=0;orthogonalLoop=1;jettySize=auto;html=1;" edge="1" parent="1" source="kS2l8qhDNlfA9cPAIQIV-157" target="kS2l8qhDNlfA9cPAIQIV-159">
          <mxGeometry relative="1" as="geometry" />
        </mxCell>
        <mxCell id="kS2l8qhDNlfA9cPAIQIV-162" value="FALSE" style="edgeStyle=orthogonalEdgeStyle;rounded=0;orthogonalLoop=1;jettySize=auto;html=1;" edge="1" parent="1" source="kS2l8qhDNlfA9cPAIQIV-157" target="kS2l8qhDNlfA9cPAIQIV-161">
          <mxGeometry relative="1" as="geometry" />
        </mxCell>
        <UserObject label="if writing cmd&lt;br&gt;&amp;nbsp;for choosing desired loc.&lt;br&gt;&amp;nbsp;== LCD_OK" Function="EN_DIO_Error_T DIO_init(uint8_t pinNumber, EN_DIO_PORT_T portNumber, EN_DIO_DIRECTION_T direction);" tags="Flowchart" id="kS2l8qhDNlfA9cPAIQIV-157">
          <mxCell style="vsdxID=219;fillColor=#fff2cc;shape=stencil(UzV2Ls5ILEhVNTIoLinKz04tz0wpyVA1dlE1MsrMy0gtyiwBslSNXVWNndPyi1LTi/JL81Ig/IJEkEoQKze/DGRCBUSfAUiHkUElhGcK4bpBVOZk5iGpNEVVikeloQHZpsK0YlWLz1QgA+HFtMycHEgIIcujBwlQCBKcxq4A);strokeColor=#d6b656;spacingTop=-1;spacingBottom=-1;spacingLeft=-1;spacingRight=-1;points=[[0,0.5,0],[1,0.5,0],[0.5,0,0],[0.5,1,0]];labelBackgroundColor=none;rounded=1;html=1;whiteSpace=wrap;fontFamily=Calibri;" vertex="1" parent="1">
            <mxGeometry x="1170.12" y="-716" width="165" height="86" as="geometry" />
          </mxCell>
        </UserObject>
        <UserObject label="&lt;div style=&quot;font-size: 1px&quot;&gt;&lt;font style=&quot;font-size: 11.29px; direction: ltr; letter-spacing: 0px; line-height: 120%; opacity: 1;&quot;&gt;LCD_OK&lt;/font&gt;&lt;/div&gt;" Function="EN_DIO_Error_T DIO_init(uint8_t pinNumber, EN_DIO_PORT_T portNumber, EN_DIO_DIRECTION_T direction);" tags="Flowchart" id="kS2l8qhDNlfA9cPAIQIV-159">
          <mxCell style="verticalAlign=middle;align=center;overflow=width;vsdxID=52;fillColor=#d5e8d4;shape=stencil(tVLREoIgEPwaHnEQxsl3s/9gEpSJwDko7e+DsEkze2l627vdu5uFRaxyHe8FosR5sCcxqMZ3iO0Rpcp0ApQPCLEasUpaEC3Yi2lS3fOojOhsr3HDmObyMtsVcYqS29Qh5FEfklwrM5OXeUa/yjkcAwfr7TDpiyTfXvjkMR+Vw2A998qaBac5tAKHU1hq3i4oNwjRr9ofvayt/+Rk+yX/4iWA159KpXWKxJx/z0Bopfyw+g4=);strokeColor=#82b366;spacingTop=-1;spacingBottom=-1;spacingLeft=-1;spacingRight=-1;points=[[0.5,1,0],[0.5,0,0],[0,0.5,0],[1,0.5,0]];labelBackgroundColor=none;rounded=1;html=1;whiteSpace=wrap;fontFamily=Calibri;" vertex="1" parent="1">
            <mxGeometry x="1202.12" y="-594" width="101" height="38" as="geometry" />
          </mxCell>
        </UserObject>
        <UserObject label="&lt;div style=&quot;font-size: 1px&quot;&gt;&lt;font style=&quot;font-size: 11.29px; direction: ltr; letter-spacing: 0px; line-height: 120%; opacity: 1;&quot;&gt;LCD_NOK&lt;/font&gt;&lt;/div&gt;" Function="EN_DIO_Error_T DIO_init(uint8_t pinNumber, EN_DIO_PORT_T portNumber, EN_DIO_DIRECTION_T direction);" tags="Flowchart" id="kS2l8qhDNlfA9cPAIQIV-161">
          <mxCell style="verticalAlign=middle;align=center;overflow=width;vsdxID=52;fillColor=#f8cecc;shape=stencil(tVLREoIgEPwaHnEQxsl3s/9gEpSJwDko7e+DsEkze2l627vdu5uFRaxyHe8FosR5sCcxqMZ3iO0Rpcp0ApQPCLEasUpaEC3Yi2lS3fOojOhsr3HDmObyMtsVcYqS29Qh5FEfklwrM5OXeUa/yjkcAwfr7TDpiyTfXvjkMR+Vw2A998qaBac5tAKHU1hq3i4oNwjRr9ofvayt/+Rk+yX/4iWA159KpXWKxJx/z0Bopfyw+g4=);strokeColor=#b85450;spacingTop=-1;spacingBottom=-1;spacingLeft=-1;spacingRight=-1;points=[[0.5,1,0],[0.5,0,0],[0,0.5,0],[1,0.5,0]];labelBackgroundColor=none;rounded=1;html=1;whiteSpace=wrap;fontFamily=Calibri;" vertex="1" parent="1">
            <mxGeometry x="1356" y="-594" width="101" height="38" as="geometry" />
          </mxCell>
        </UserObject>
        <mxCell id="kS2l8qhDNlfA9cPAIQIV-172" value="" style="edgeStyle=orthogonalEdgeStyle;rounded=0;orthogonalLoop=1;jettySize=auto;html=1;" edge="1" parent="1" source="kS2l8qhDNlfA9cPAIQIV-164" target="kS2l8qhDNlfA9cPAIQIV-169">
          <mxGeometry relative="1" as="geometry" />
        </mxCell>
        <UserObject label="&lt;div style=&quot;&quot;&gt;&lt;span style=&quot;font-size: 11.29px;&quot;&gt;START&lt;/span&gt;&lt;/div&gt;" Function="EN_DIO_Error_T DIO_init(uint8_t pinNumber, EN_DIO_PORT_T portNumber, EN_DIO_DIRECTION_T direction);" tags="Flowchart" id="kS2l8qhDNlfA9cPAIQIV-164">
          <mxCell style="verticalAlign=middle;align=center;overflow=width;vsdxID=30;fillColor=#dae8fc;shape=stencil(tVLREoIgEPwaHnEQxsl3s/9gEpSJwDko7e+DsEkze2l627vdu5uFRaxyHe8FosR5sCcxqMZ3iO0Rpcp0ApQPCLEasUpaEC3Yi2lS3fOojOhsr3HDmObyMtsVcYqS29Qh5FEfklwrM5OXeUa/yjkcAwfr7TDpiyTfXvjkMR+Vw2A998qaBac5tAKHU1hq3i4oNwjRr9ofvayt/+Rk+yX/4iWA159KpXWKxJx/z0Bopfyw+g4=);strokeColor=#6c8ebf;spacingTop=-1;spacingBottom=-1;spacingLeft=-1;spacingRight=-1;points=[[0.5,1,0],[0.5,0,0],[0,0.5,0],[1,0.5,0]];labelBackgroundColor=none;rounded=1;html=1;whiteSpace=wrap;fontFamily=Calibri;" vertex="1" parent="1">
            <mxGeometry x="1212.12" y="-420.5" width="101" height="38" as="geometry" />
          </mxCell>
        </UserObject>
        <mxCell id="kS2l8qhDNlfA9cPAIQIV-168" value="FALSE" style="edgeStyle=orthogonalEdgeStyle;rounded=0;orthogonalLoop=1;jettySize=auto;html=1;" edge="1" source="kS2l8qhDNlfA9cPAIQIV-169" target="kS2l8qhDNlfA9cPAIQIV-171" parent="1">
          <mxGeometry x="-0.7331" relative="1" as="geometry">
            <mxPoint as="offset" />
          </mxGeometry>
        </mxCell>
        <mxCell id="kS2l8qhDNlfA9cPAIQIV-175" value="TRUE" style="edgeStyle=orthogonalEdgeStyle;rounded=0;orthogonalLoop=1;jettySize=auto;html=1;" edge="1" parent="1" source="kS2l8qhDNlfA9cPAIQIV-169" target="kS2l8qhDNlfA9cPAIQIV-173">
          <mxGeometry relative="1" as="geometry" />
        </mxCell>
        <UserObject label="if writing cmd&lt;br&gt;&amp;nbsp;For clearing lcd&lt;br&gt;&amp;nbsp;== LCD_OK" Function="EN_DIO_Error_T DIO_init(uint8_t pinNumber, EN_DIO_PORT_T portNumber, EN_DIO_DIRECTION_T direction);" tags="Flowchart" id="kS2l8qhDNlfA9cPAIQIV-169">
          <mxCell style="vsdxID=219;fillColor=#fff2cc;shape=stencil(UzV2Ls5ILEhVNTIoLinKz04tz0wpyVA1dlE1MsrMy0gtyiwBslSNXVWNndPyi1LTi/JL81Ig/IJEkEoQKze/DGRCBUSfAUiHkUElhGcK4bpBVOZk5iGpNEVVikeloQHZpsK0YlWLz1QgA+HFtMycHEgIIcujBwlQCBKcxq4A);strokeColor=#d6b656;spacingTop=-1;spacingBottom=-1;spacingLeft=-1;spacingRight=-1;points=[[0,0.5,0],[1,0.5,0],[0.5,0,0],[0.5,1,0]];labelBackgroundColor=none;rounded=1;html=1;whiteSpace=wrap;fontFamily=Calibri;" vertex="1" parent="1">
            <mxGeometry x="1180.12" y="-353.5" width="165" height="86" as="geometry" />
          </mxCell>
        </UserObject>
        <UserObject label="&lt;div style=&quot;font-size: 1px&quot;&gt;&lt;font style=&quot;font-size: 11.29px; direction: ltr; letter-spacing: 0px; line-height: 120%; opacity: 1;&quot;&gt;LCD_OK&lt;/font&gt;&lt;/div&gt;" Function="EN_DIO_Error_T DIO_init(uint8_t pinNumber, EN_DIO_PORT_T portNumber, EN_DIO_DIRECTION_T direction);" tags="Flowchart" id="kS2l8qhDNlfA9cPAIQIV-170">
          <mxCell style="verticalAlign=middle;align=center;overflow=width;vsdxID=52;fillColor=#d5e8d4;shape=stencil(tVLREoIgEPwaHnEQxsl3s/9gEpSJwDko7e+DsEkze2l627vdu5uFRaxyHe8FosR5sCcxqMZ3iO0Rpcp0ApQPCLEasUpaEC3Yi2lS3fOojOhsr3HDmObyMtsVcYqS29Qh5FEfklwrM5OXeUa/yjkcAwfr7TDpiyTfXvjkMR+Vw2A998qaBac5tAKHU1hq3i4oNwjRr9ofvayt/+Rk+yX/4iWA159KpXWKxJx/z0Bopfyw+g4=);strokeColor=#82b366;spacingTop=-1;spacingBottom=-1;spacingLeft=-1;spacingRight=-1;points=[[0.5,1,0],[0.5,0,0],[0,0.5,0],[1,0.5,0]];labelBackgroundColor=none;rounded=1;html=1;whiteSpace=wrap;fontFamily=Calibri;" vertex="1" parent="1">
            <mxGeometry x="1212.12" y="-118" width="101" height="38" as="geometry" />
          </mxCell>
        </UserObject>
        <UserObject label="&lt;div style=&quot;font-size: 1px&quot;&gt;&lt;font style=&quot;font-size: 11.29px; direction: ltr; letter-spacing: 0px; line-height: 120%; opacity: 1;&quot;&gt;LCD_NOK&lt;/font&gt;&lt;/div&gt;" Function="EN_DIO_Error_T DIO_init(uint8_t pinNumber, EN_DIO_PORT_T portNumber, EN_DIO_DIRECTION_T direction);" tags="Flowchart" id="kS2l8qhDNlfA9cPAIQIV-171">
          <mxCell style="verticalAlign=middle;align=center;overflow=width;vsdxID=52;fillColor=#f8cecc;shape=stencil(tVLREoIgEPwaHnEQxsl3s/9gEpSJwDko7e+DsEkze2l627vdu5uFRaxyHe8FosR5sCcxqMZ3iO0Rpcp0ApQPCLEasUpaEC3Yi2lS3fOojOhsr3HDmObyMtsVcYqS29Qh5FEfklwrM5OXeUa/yjkcAwfr7TDpiyTfXvjkMR+Vw2A998qaBac5tAKHU1hq3i4oNwjRr9ofvayt/+Rk+yX/4iWA159KpXWKxJx/z0Bopfyw+g4=);strokeColor=#b85450;spacingTop=-1;spacingBottom=-1;spacingLeft=-1;spacingRight=-1;points=[[0.5,1,0],[0.5,0,0],[0,0.5,0],[1,0.5,0]];labelBackgroundColor=none;rounded=1;html=1;whiteSpace=wrap;fontFamily=Calibri;" vertex="1" parent="1">
            <mxGeometry x="1366" y="-120.5" width="101" height="38" as="geometry" />
          </mxCell>
        </UserObject>
        <mxCell id="kS2l8qhDNlfA9cPAIQIV-176" value="" style="edgeStyle=orthogonalEdgeStyle;rounded=0;orthogonalLoop=1;jettySize=auto;html=1;" edge="1" parent="1" source="kS2l8qhDNlfA9cPAIQIV-173" target="kS2l8qhDNlfA9cPAIQIV-170">
          <mxGeometry relative="1" as="geometry" />
        </mxCell>
        <mxCell id="kS2l8qhDNlfA9cPAIQIV-177" value="FALSE" style="edgeStyle=orthogonalEdgeStyle;rounded=0;orthogonalLoop=1;jettySize=auto;html=1;" edge="1" parent="1" source="kS2l8qhDNlfA9cPAIQIV-173" target="kS2l8qhDNlfA9cPAIQIV-171">
          <mxGeometry x="-0.5064" relative="1" as="geometry">
            <mxPoint as="offset" />
          </mxGeometry>
        </mxCell>
        <UserObject label="if LCD_goTo (0,0) == LCD_OK" Function="EN_DIO_Error_T DIO_init(uint8_t pinNumber, EN_DIO_PORT_T portNumber, EN_DIO_DIRECTION_T direction);" tags="Flowchart" id="kS2l8qhDNlfA9cPAIQIV-173">
          <mxCell style="vsdxID=219;fillColor=#fff2cc;shape=stencil(UzV2Ls5ILEhVNTIoLinKz04tz0wpyVA1dlE1MsrMy0gtyiwBslSNXVWNndPyi1LTi/JL81Ig/IJEkEoQKze/DGRCBUSfAUiHkUElhGcK4bpBVOZk5iGpNEVVikeloQHZpsK0YlWLz1QgA+HFtMycHEgIIcujBwlQCBKcxq4A);strokeColor=#d6b656;spacingTop=-1;spacingBottom=-1;spacingLeft=-1;spacingRight=-1;points=[[0,0.5,0],[1,0.5,0],[0.5,0,0],[0.5,1,0]];labelBackgroundColor=none;rounded=1;html=1;whiteSpace=wrap;fontFamily=Calibri;" vertex="1" parent="1">
            <mxGeometry x="1180.12" y="-233.5" width="165" height="86" as="geometry" />
          </mxCell>
        </UserObject>
        <mxCell id="kS2l8qhDNlfA9cPAIQIV-178" value="&lt;h1&gt;LCD_init&lt;/h1&gt;" style="text;html=1;strokeColor=none;fillColor=none;spacing=5;spacingTop=-20;whiteSpace=wrap;overflow=hidden;rounded=0;" vertex="1" parent="1">
          <mxGeometry x="-362.01" y="-964" width="117" height="42" as="geometry" />
        </mxCell>
        <mxCell id="kS2l8qhDNlfA9cPAIQIV-179" value="&lt;h1&gt;LCD_writeChar&lt;/h1&gt;" style="text;html=1;strokeColor=none;fillColor=none;spacing=5;spacingTop=-20;whiteSpace=wrap;overflow=hidden;rounded=0;" vertex="1" parent="1">
          <mxGeometry x="343" y="-950" width="185" height="42" as="geometry" />
        </mxCell>
        <mxCell id="kS2l8qhDNlfA9cPAIQIV-180" value="&lt;h1&gt;LCD_writeCMD&lt;/h1&gt;" style="text;html=1;strokeColor=none;fillColor=none;spacing=5;spacingTop=-20;whiteSpace=wrap;overflow=hidden;rounded=0;" vertex="1" parent="1">
          <mxGeometry x="391" y="-155" width="185" height="42" as="geometry" />
        </mxCell>
        <mxCell id="kS2l8qhDNlfA9cPAIQIV-181" value="&lt;h1&gt;LCD_clr&lt;/h1&gt;" style="text;html=1;strokeColor=none;fillColor=none;spacing=5;spacingTop=-20;whiteSpace=wrap;overflow=hidden;rounded=0;" vertex="1" parent="1">
          <mxGeometry x="1206.62" y="-490" width="112" height="42" as="geometry" />
        </mxCell>
        <mxCell id="kS2l8qhDNlfA9cPAIQIV-182" value="&lt;h1&gt;LCD_goTo&lt;/h1&gt;" style="text;html=1;strokeColor=none;fillColor=none;spacing=5;spacingTop=-20;whiteSpace=wrap;overflow=hidden;rounded=0;" vertex="1" parent="1">
          <mxGeometry x="1196.63" y="-950" width="132.37" height="42" as="geometry" />
        </mxCell>
      </root>
    </mxGraphModel>
  </diagram>
</mxfile>
